<svg version="1.1" xmlns="http://www.w3.org/2000/svg" xmlns:xlink="http://www.w3.org/1999/xlink" width="56.5" height="55.66667" viewBox="0,0,56.5,55.66667"><defs><linearGradient x1="240" y1="152.16668" x2="240" y2="207.83334" gradientUnits="userSpaceOnUse" id="color-1"><stop offset="0" stop-color="#ff9500"/><stop offset="1" stop-color="#ff0079"/></linearGradient></defs><g transform="translate(-211.75,-152.16667)"><g data-paper-data="{&quot;isPaintingLayer&quot;:true}" fill-rule="nonzero" stroke-width="0" stroke-linecap="butt" stroke-linejoin="miter" stroke-miterlimit="10" stroke-dasharray="" stroke-dashoffset="0" style="mix-blend-mode: normal"><path d="M211.75,201.0278c0,-11.50989 0,-34.22932 0,-41c0,-3.72871 2.33215,-7.86112 4.77258,-7.86112c6.08687,0 32.6406,0 45.15594,0c4.00428,0 6.57147,2.91952 6.57147,7.36112c0,12.14134 0,35.6561 0,42c0,3.09685 -1.87728,6.30555 -4.91943,6.30555c-11.35586,0 -38.94314,0 -45.70663,0c-2.921,0 -5.87394,-2.68414 -5.87394,-6.80555z" fill="url(#color-1)" stroke="#000000"/><path d="M230.44623,162.9167h26.63712l-14.44013,8.95525z" fill="#ffffff" stroke="none"/><path d="M238.82767,180.00003l18.22315,-11.06442v22.12885z" fill="#ffffff" stroke="#ffa7a7"/><path d="M222.91669,197.08337v-34.16666l15.62275,11.50027l-9.21243,5.71322l8.89564,5.43332z" fill="#ffffff" stroke="none"/><path d="M242.71582,188.30788l14.36753,8.77549h-25.90823z" fill="#ffffff" stroke="none"/></g></g></svg>