<svg version="1.1" xmlns="http://www.w3.org/2000/svg" xmlns:xlink="http://www.w3.org/1999/xlink" width="70.08255" height="54.4649" viewBox="0,0,70.08255,54.4649"><defs><linearGradient x1="232.27385" y1="63.87105" x2="302.3564" y2="63.87105" gradientUnits="userSpaceOnUse" id="color-1"><stop offset="0" stop-color="#ffffff"/><stop offset="1" stop-color="#dadada"/></linearGradient></defs><g transform="translate(-232.27384,-36.6386)"><g data-paper-data="{&quot;isPaintingLayer&quot;:true}" fill-rule="nonzero" stroke="none" stroke-linecap="butt" stroke-linejoin="miter" stroke-miterlimit="10" stroke-dasharray="" stroke-dashoffset="0" style="mix-blend-mode: normal"><path d="M232.93004,90.18482c0,0 -0.6562,-0.3523 -0.6562,-2.49357c0,-10.38179 0,-41.2217 0,-46.85295c0,-1.68291 0.91869,-2.8873 0.91869,-2.8873c0,0 0.77276,-1.3124 2.75606,-1.3124c7.09548,0 49.28275,0 62.47059,0c2.48234,0 2.62481,0.6562 2.62481,0.6562c0,0 1.3124,1.08799 1.3124,3.01854c0,5.90323 0,36.45523 0,47.11542c0,2.30059 -0.6562,2.8873 -0.6562,2.8873c0,0 -0.76804,0.78744 -2.49357,0.78744c-6.49891,0 -48.3708,-0.13124 -62.99556,-0.13124c-3.27515,0 -3.28102,-0.78744 -3.28102,-0.78744z" fill="url(#color-1)" stroke-width="0"/><text transform="translate(234.1804,60.20549) scale(0.40715,0.40715)" font-size="40" xml:space="preserve" fill="#9c9c9c" fill-rule="nonzero" stroke="none" stroke-width="1" stroke-linecap="butt" stroke-linejoin="miter" stroke-miterlimit="10" stroke-dasharray="" stroke-dashoffset="0" font-family="Sans Serif" font-weight="normal" text-anchor="start" style="mix-blend-mode: normal"><tspan x="0" dy="0">Karaoke</tspan><tspan x="0" dy="48px">Player</tspan></text></g></g></svg>