<svg version="1.1" xmlns="http://www.w3.org/2000/svg" xmlns:xlink="http://www.w3.org/1999/xlink" width="70.08255" height="54.4649" viewBox="0,0,70.08255,54.4649"><defs><linearGradient x1="231.99958" y1="63.87105" x2="302.08213" y2="63.87105" gradientUnits="userSpaceOnUse" id="color-1"><stop offset="0" stop-color="#0073ff"/><stop offset="1" stop-color="#00bdff"/></linearGradient><linearGradient x1="286.96865" y1="69.91928" x2="296.50837" y2="73.95217" gradientUnits="userSpaceOnUse" id="color-2"><stop offset="0" stop-color="#2c2e2e"/><stop offset="1" stop-color="#202123"/></linearGradient><linearGradient x1="272.75642" y1="63.63967" x2="291.83585" y2="71.70546" gradientUnits="userSpaceOnUse" id="color-3"><stop offset="0" stop-color="#434445"/><stop offset="1" stop-color="#2c2e2e"/></linearGradient><linearGradient x1="235.77865" y1="73.54506" x2="266.33865" y2="73.54506" gradientTransform="translate(-471.55728,-158.62762) scale(2,2)" gradientUnits="userSpaceOnUse" id="color-4"><stop offset="0" stop-color="#0078ff"/><stop offset="1" stop-color="#0098ff"/></linearGradient></defs><g transform="translate(-231.99958,-36.6386)"><g data-paper-data="{&quot;isPaintingLayer&quot;:true}" fill-rule="nonzero" stroke-linecap="butt" stroke-linejoin="miter" stroke-miterlimit="10" stroke-dasharray="" stroke-dashoffset="0" style="mix-blend-mode: normal"><path d="M238.65154,72.1873v-13.96554h17.77432v13.96554z" fill="#d10000" stroke="none" stroke-width="0"/><path d="M260.23464,83.61365v-25.39188h36.81823v25.39188z" fill="#00ff46" stroke="none" stroke-width="0"/><path d="M232.65578,90.18482c0,0 -0.6562,-0.3523 -0.6562,-2.49357c0,-10.38179 0,-41.2217 0,-46.85295c0,-1.68291 0.91869,-2.8873 0.91869,-2.8873c0,0 0.77276,-1.3124 2.75606,-1.3124c7.09548,0 49.28275,0 62.47059,0c2.48234,0 2.62481,0.6562 2.62481,0.6562c0,0 1.3124,1.08799 1.3124,3.01854c0,5.90323 0,36.45523 0,47.11542c0,2.30059 -0.6562,2.8873 -0.6562,2.8873c0,0 -0.76804,0.78744 -2.49357,0.78744c-6.49891,0 -48.3708,-0.13124 -62.99556,-0.13124c-3.27515,0 -3.28102,-0.78744 -3.28102,-0.78744z" fill="url(#color-1)" stroke="none" stroke-width="0"/><text transform="translate(234.69334,65.51381) scale(0.5,0.5)" font-size="40" xml:space="preserve" fill="#e8f0f0" fill-rule="nonzero" stroke="#e8f0f0" stroke-width="3" stroke-linecap="butt" stroke-linejoin="miter" stroke-miterlimit="10" stroke-dasharray="" stroke-dashoffset="0" font-family="Sans Serif" font-weight="normal" text-anchor="start" style="mix-blend-mode: normal"><tspan x="0" dy="0">TTS</tspan></text><g stroke="none" stroke-width="0"><path d="M283.89531,77.1892l6.14668,-14.53984l9.53972,4.03289l-6.14668,14.53985z" fill="url(#color-2)"/><path d="M265.49722,80.81116l14.51842,-34.34298l16.85439,13.32908l-10.06833,23.8164z" fill="url(#color-3)"/></g><text transform="translate(235.77864,79.31381) scale(0.5,0.5)" font-size="40" xml:space="preserve" fill="#f82c2c" fill-rule="nonzero" stroke="url(#color-4)" stroke-width="6" stroke-linecap="butt" stroke-linejoin="miter" stroke-miterlimit="10" stroke-dasharray="" stroke-dashoffset="0" font-family="Sans Serif" font-weight="normal" text-anchor="start" style="mix-blend-mode: normal"><tspan x="0" dy="0">MX</tspan></text><text transform="translate(235.77864,79.31381) scale(0.5,0.5)" font-size="40" xml:space="preserve" fill="#f82c2c" fill-rule="nonzero" stroke="#f82c2c" stroke-width="3" stroke-linecap="butt" stroke-linejoin="miter" stroke-miterlimit="10" stroke-dasharray="" stroke-dashoffset="0" font-family="Sans Serif" font-weight="normal" text-anchor="start" style="mix-blend-mode: normal"><tspan x="0" dy="0">MX</tspan></text></g></g></svg>