<svg version="1.1" xmlns="http://www.w3.org/2000/svg" xmlns:xlink="http://www.w3.org/1999/xlink" width="70.08255" height="54.4649" viewBox="0,0,70.08255,54.4649"><defs><linearGradient x1="231.99959" y1="63.87105" x2="302.08214" y2="63.87105" gradientUnits="userSpaceOnUse" id="color-1"><stop offset="0" stop-color="#ffffff"/><stop offset="1" stop-color="#dadada"/></linearGradient><linearGradient x1="238.00746" y1="64.37938" x2="255.24196" y2="64.37938" gradientTransform="translate(-315.97095,-97.00546) scale(1.32756,1.32756)" gradientUnits="userSpaceOnUse" id="color-2"><stop offset="0" stop-color="#00660d"/><stop offset="1" stop-color="#00ba11"/></linearGradient></defs><g transform="translate(-231.99958,-36.6386)"><g data-paper-data="{&quot;isPaintingLayer&quot;:true}" fill-rule="nonzero" stroke="none" stroke-linecap="butt" stroke-linejoin="miter" stroke-miterlimit="10" stroke-dasharray="" stroke-dashoffset="0" style="mix-blend-mode: normal"><path d="M232.65578,90.18482c0,0 -0.6562,-0.3523 -0.6562,-2.49357c0,-10.38179 0,-41.2217 0,-46.85295c0,-1.68291 0.91869,-2.8873 0.91869,-2.8873c0,0 0.77276,-1.3124 2.75606,-1.3124c7.09548,0 49.28275,0 62.47059,0c2.48234,0 2.62481,0.6562 2.62481,0.6562c0,0 1.3124,1.08799 1.3124,3.01854c0,5.90323 0,36.45523 0,47.11542c0,2.30059 -0.6562,2.8873 -0.6562,2.8873c0,0 -0.76804,0.78744 -2.49357,0.78744c-6.49891,0 -48.3708,-0.13124 -62.99556,-0.13124c-3.27515,0 -3.28102,-0.78744 -3.28102,-0.78744z" fill="url(#color-1)" stroke-width="0"/><text transform="translate(238.00828,73.07033) scale(0.75326,0.75326)" font-size="40" xml:space="preserve" fill="url(#color-2)" fill-rule="nonzero" stroke="none" stroke-width="1" stroke-linecap="butt" stroke-linejoin="miter" stroke-miterlimit="10" stroke-dasharray="" stroke-dashoffset="0" font-family="Sans Serif" font-weight="normal" text-anchor="start" style="mix-blend-mode: normal"><tspan x="0" dy="0">$</tspan></text><text transform="translate(279.74658,74.02617) scale(0.75326,0.75326)" font-size="40" xml:space="preserve" fill="#0061bb" fill-rule="nonzero" stroke="none" stroke-width="1" stroke-linecap="butt" stroke-linejoin="miter" stroke-miterlimit="10" stroke-dasharray="" stroke-dashoffset="0" font-family="Sans Serif" font-weight="normal" text-anchor="start" style="mix-blend-mode: normal"><tspan x="0" dy="0">€</tspan></text><path d="M257.34808,68.47649v-10.03631h15.13412v10.03631z" fill="#990000" stroke-width="0"/><path d="M267.86231,73.09638l-0.15931,-18.95747l11.47007,9.55839z" fill="#990000" stroke-width="0"/></g></g></svg>