<svg version="1.1" xmlns="http://www.w3.org/2000/svg" xmlns:xlink="http://www.w3.org/1999/xlink" width="30.3125" height="44.67341" viewBox="0,0,30.3125,44.67341"><defs><radialGradient cx="1.15793" cy="78.72927" r="15.15625" gradientUnits="userSpaceOnUse" id="color-1"><stop offset="0" stop-color="#dfdf2c"/><stop offset="1" stop-color="#dfdf2c" stop-opacity="0"/></radialGradient></defs><g transform="translate(13.99832,-59.13501)"><g data-paper-data="{&quot;isPaintingLayer&quot;:true}" fill-rule="nonzero" stroke="none" stroke-linecap="butt" stroke-linejoin="miter" stroke-miterlimit="10" stroke-dasharray="" stroke-dashoffset="0" style="mix-blend-mode: normal"><text transform="translate(-7.37699,95.17522) scale(0.82221,0.82221)" font-size="40" xml:space="preserve" fill="#3a3a3a" fill-rule="nonzero" stroke="none" stroke-width="1" stroke-linecap="butt" stroke-linejoin="miter" stroke-miterlimit="10" stroke-dasharray="" stroke-dashoffset="0" font-family="Malgun Gothic" font-weight="normal" text-anchor="start" style="mix-blend-mode: normal"><tspan x="0" dy="0">?</tspan></text><g stroke-width="0"><path d="M-13.99832,78.72927c0,-8.37056 6.78569,-15.15625 15.15625,-15.15625c8.37056,0 15.15625,6.78569 15.15625,15.15625c0,8.37056 -6.78569,15.15624 -15.15625,15.15624c-8.37056,0 -15.15625,-6.78568 -15.15625,-15.15624z" fill="url(#color-1)"/><path d="M-10.19065,78.72927c0,-6.26765 5.08094,-11.34858 11.34858,-11.34858c6.26765,0 11.34858,5.08094 11.34858,11.34859c0,6.26765 -5.08093,11.34858 -11.34858,11.34858c-6.26765,0 -11.34858,-5.08093 -11.34858,-11.34858z" fill="#dfdf2c"/><path d="M-3.88071,95.51959v-13.76713h10.32535v13.76713z" fill="#dfdf2c"/><path d="M-3.92102,96.46531c0,-1.31587 0,-4.70377 0,-4.70377h10.32535c0,0 0,3.38791 0,4.70377c0,0.95139 -0.76977,2.45886 -1.46353,2.45886c-1.1596,0 -4.83271,0 -7.06961,0c-1.05621,0 -1.79221,-1.50748 -1.79221,-2.45886z" fill="#8c8c84"/></g></g></g></svg>