<svg version="1.1" xmlns="http://www.w3.org/2000/svg" xmlns:xlink="http://www.w3.org/1999/xlink" width="30.81214" height="30.81217" viewBox="0,0,30.81214,30.81217"><g transform="translate(15.83908,-67.81675)"><g data-paper-data="{&quot;isPaintingLayer&quot;:true}" fill-rule="nonzero" stroke="none" stroke-width="1" stroke-linecap="butt" stroke-linejoin="miter" stroke-miterlimit="10" stroke-dasharray="" stroke-dashoffset="0" style="mix-blend-mode: normal"><g><path d="M14.97306,81.31723c0,7.45591 -6.04427,13.50048 -13.50049,13.50048c-7.45591,0 -13.50048,-6.04459 -13.50048,-13.50048c0,-7.45613 6.04459,-13.50048 13.50048,-13.50048c7.45624,0 13.50049,6.04437 13.50049,13.50048z" fill="#3969e4"/><path d="M14.97306,81.31723c0,7.45591 -6.04427,13.50048 -13.50049,13.50048c-7.45591,0 -13.50048,-6.04459 -13.50048,-13.50048c0,-7.45613 6.04459,-13.50048 13.50048,-13.50048c7.45624,0 13.50049,6.04437 13.50049,13.50048z" fill="#3969e4"/><g fill-opacity="0.28" fill="#9b9b9b"><path d="M11.34613,85.03631c0,7.50706 -6.08556,13.59261 -13.59261,13.59261c-7.50706,0 -13.5926,-6.08556 -13.5926,-13.59261c0,-7.50706 6.08556,-13.59261 13.5926,-13.59261c7.50706,0 13.59261,6.08556 13.59261,13.59261z"/><path d="M11.34613,85.03631c0,7.50706 -6.08556,13.59261 -13.59261,13.59261c-7.50706,0 -13.5926,-6.08556 -13.5926,-13.59261c0,-7.50706 6.08556,-13.59261 13.5926,-13.59261c7.50706,0 13.59261,6.08556 13.59261,13.59261z"/></g></g></g></g></svg>