<svg version="1.1" xmlns="http://www.w3.org/2000/svg" xmlns:xlink="http://www.w3.org/1999/xlink" width="38.46343" height="33.00001" viewBox="0,0,38.46343,33.00001"><defs><linearGradient x1="222.14286" y1="180.57143" x2="258.14286" y2="180.57143" gradientUnits="userSpaceOnUse" id="color-1"><stop offset="0" stop-color="#ffffff"/><stop offset="1" stop-color="#9f9f9f"/></linearGradient><linearGradient x1="234.26648" y1="180.10509" x2="245.16648" y2="180.10509" gradientUnits="userSpaceOnUse" id="color-2"><stop offset="0" stop-color="#7098ff"/><stop offset="1" stop-color="#0d0085"/></linearGradient><radialGradient cx="239.71317" cy="180.35596" r="5.25536" gradientUnits="userSpaceOnUse" id="color-3"><stop offset="0" stop-color="#00127b"/><stop offset="1" stop-color="#00127b" stop-opacity="0"/></radialGradient><radialGradient cx="239.66013" cy="180.08945" r="5.49017" gradientUnits="userSpaceOnUse" id="color-4"><stop offset="0" stop-color="#000000" stop-opacity="0"/><stop offset="1" stop-color="#000000" stop-opacity="0"/></radialGradient></defs><g transform="translate(-221.34994,-164.07144)"><g data-paper-data="{&quot;isPaintingLayer&quot;:true}" fill-rule="nonzero" stroke-linecap="butt" stroke-linejoin="miter" stroke-miterlimit="10" stroke-dasharray="" stroke-dashoffset="0" style="mix-blend-mode: normal"><path d="M223.14286,196.07143c0,0 -1,-0.54524 -1,-2.93254c0,-6.91865 0,-20.90979 0,-24.85714c0,-2.03041 1.14286,-2.9246 1.14286,-2.9246c0,0 1.22237,-1.28571 3.42857,-1.28571c4.35742,0 19.98303,0 27.42857,0c2.43883,0 3.14286,1.14286 3.14286,1.14286c0,0 0.85714,0.84635 0.85714,3.79762c0,7.186 0,20.0757 0,23.84127c0,2.03363 -0.85714,3.21826 -0.85714,3.21826c0,0 -0.70303,1 -3.14286,1c-7.52613,0 -23.42249,0 -27.71429,0c-2.08915,0 -3.28571,-1 -3.28571,-1z" fill="url(#color-1)" stroke="none" stroke-width="0"/><path d="M245.16648,180.10509c0,3.03145 -2.44005,5.48893 -5.45,5.48893c-3.00995,0 -5.45,-2.45747 -5.45,-5.48893c0,-3.03145 2.44005,-5.48893 5.45,-5.48893c3.00995,0 5.45,2.45747 5.45,5.48893z" fill="url(#color-2)" stroke="none" stroke-width="0"/><path d="M244.96852,180.35596c0,2.90245 -2.35291,5.25536 -5.25536,5.25536c-2.90245,0 -5.25536,-2.35291 -5.25536,-5.25536c0,-2.90245 2.35291,-5.25536 5.25536,-5.25536c2.90245,0 5.25536,2.35291 5.25536,5.25536z" fill="url(#color-3)" stroke="#000000" stroke-width="0"/><path d="M240.65802,180.63624c0,0 -0.10856,0.04475 -0.26949,0.00649c-0.23465,-0.05579 -0.56513,-0.22588 -0.70416,-0.45335c-0.07685,-0.12574 0.10149,-0.29563 0.00572,-0.45449c-0.07378,-0.12237 -0.21153,-0.19674 -0.22083,-0.32852c-0.00623,-0.08836 0.10602,-0.24814 0.10762,-0.29543c0.00245,-0.07256 0.16931,-0.09823 0.25328,-0.22075c0.04048,-0.05907 0.01568,-0.23391 0.06136,-0.30043c0.05747,-0.0837 0.24522,-0.1372 0.30903,-0.21239c0.0346,-0.04078 -0.25129,-0.19105 -0.2232,-0.22906c0.14193,-0.19208 0.60253,-0.25592 0.60253,-0.25592c0,0 0.19626,0.26963 0.3992,0.18965c0.18187,-0.07167 0.33892,-0.17951 0.49119,-0.15076c0.07446,0.01406 0.17866,0.02445 0.26299,0.01583c0.13438,-0.01373 0.44513,0.0551 0.63821,0.00303c0.1954,-0.0527 0.27362,-0.22656 0.49153,-0.28246c0.32334,-0.08295 0.53107,-0.00273 0.72004,-0.00288c0.12202,-0.0001 0.2925,-0.09007 0.2925,-0.09007c0,0 0.28086,0.4973 0.42046,0.9834c0.0531,0.18491 0.06217,0.38001 0.06217,0.52817c0,0.14359 -0.11239,0.29589 -0.11041,0.4849c0.00214,0.20348 0.1193,0.44511 0.13852,0.63568c0.02649,0.26265 -0.14301,0.42936 -0.14301,0.42936c0,0 0.02464,0.32284 0.04817,0.6878c0.01054,0.16351 0.06495,0.34652 0.04066,0.49368c-0.03326,0.20152 -0.21827,0.27039 -0.33435,0.39187c-0.08468,0.08863 -0.09397,0.22464 -0.17188,0.36493c-0.20323,0.36593 -0.46112,0.90726 -0.78997,1.07405c-0.12291,0.06234 -0.23668,0.05012 -0.38888,0.0613c-0.12375,0.00909 -0.2916,0.043 -0.35951,0.06945c-0.11086,0.04317 -0.07667,-0.1327 -0.17268,-0.36586c-0.03444,-0.08366 -0.27763,-0.13623 -0.31501,-0.23584c-0.04152,-0.11063 0.10226,-0.22964 0.07124,-0.34996c-0.01811,-0.07025 -0.09313,-0.16857 -0.11418,-0.23831c-0.01233,-0.04084 -0.09354,-0.09493 -0.10572,-0.1344c-0.02533,-0.0821 -0.24029,-0.28442 -0.25979,-0.35649c-0.01648,-0.06089 0.1853,-0.16653 0.18671,-0.20806c0.00489,-0.14382 -0.11944,-0.12624 -0.16459,-0.12624c-0.07883,0 -0.38429,-0.23757 -0.48401,-0.3774c-0.03192,-0.04476 -0.04638,-0.10496 -0.07137,-0.1517c-0.02544,-0.04758 0.0073,-0.17805 -0.0124,-0.22447c-0.10409,-0.24522 -0.1877,-0.37436 -0.1877,-0.37436z" fill-opacity="0.56471" fill="#ffffff" stroke="none" stroke-width="0"/><path d="M239.83859,177.36373c0,0 0.16333,-0.11195 0.16333,-0.19963c0,-0.05817 -0.18263,-0.16425 -0.20795,-0.27843c-0.04836,-0.21805 0.1898,-0.35676 0.1898,-0.35676c0,0 0.14932,0.0366 0.22828,0.02413c0.06244,-0.00986 0.18363,-0.06466 0.29078,-0.0994c0.11097,-0.03598 0.16332,0.01357 0.16332,0.01357c0,0 -0.16229,0.2166 -0.16152,0.3035c0.00133,0.15076 0.16878,0.52042 0.16878,0.52042c0,0 -0.25723,0.14518 -0.39926,0.14518c-0.13598,0 -0.43555,-0.07259 -0.43555,-0.07259z" fill-opacity="0.56471" fill="#ffffff" stroke="none" stroke-width="0"/><path d="M240.58569,176.42421c0,0 -0.068,-0.27836 -0.068,-0.43068c0,-0.11884 0.15867,-0.27201 0.15867,-0.27201c0,0 0.16507,-0.16838 0.29496,-0.17724c0.10948,-0.00746 0.25481,0.05587 0.47134,0.04359c0.04998,-0.00283 0.09488,-0.09702 0.07804,-0.22134c-0.01146,-0.0846 -0.09533,-0.21235 -0.05483,-0.22091c0.11245,-0.02375 0.48634,0.34795 0.58893,0.35187c0.27283,0.01042 0.72512,0.11522 0.72512,0.11522c0,0 0.24217,0.13788 0.47309,0.32082c0.21989,0.1742 0.42578,0.38927 0.55088,0.56502c0.13272,0.18645 -0.269,0.23175 -0.26655,0.3114c0.0037,0.12059 -0.13126,0.17626 -0.36724,0.16793c-0.16637,-0.00587 -0.40378,0.01754 -0.40378,0.01754c0,0 -0.2172,-0.66932 -0.38458,-0.68415c-0.13655,-0.01209 -0.2353,0.11293 -0.39065,0.11293c-0.14146,0 -0.21683,0.81603 -0.34001,0.81603c-0.021,0 -0.27462,0.14833 -0.30336,0.04019c-0.02521,-0.09489 0.30073,-0.24791 0.31821,-0.39852c0.0269,-0.23169 -0.2425,-0.45771 -0.2642,-0.45771c-0.1442,0 -0.38215,0.09067 -0.54402,0.09067c-0.17705,0 -0.27201,-0.09067 -0.27201,-0.09067z" fill-opacity="0.56471" fill="#ffffff" stroke="none" stroke-width="0"/><path d="M239.77902,175.87388c0,0 0.14758,-0.05304 0.15328,-0.09961c0.0102,-0.08327 0.09861,-0.34819 0.09861,-0.34819c0,0 -0.04754,-0.09278 0.11395,-0.09735c0.03876,-0.00109 0.1224,0.12534 0.1224,0.12534c0,0 0.03167,0.25335 0.04369,0.34957c0.00846,0.06766 -0.04369,0.13556 -0.04369,0.13556c0,0 -0.09888,0.03732 -0.17725,0.03732c-0.08665,0 -0.31098,-0.10262 -0.31098,-0.10262z" fill-opacity="0.56471" fill="#ffffff" stroke="none" stroke-width="0"/><path d="M239.38098,175.86973c0,0 0.12091,-0.11661 0.11536,-0.15131c-0.00668,-0.04174 -0.10603,-0.11924 -0.10603,-0.11924c0,0 0.22238,-0.13061 0.27055,-0.13061c0.03316,0 0.02799,0.06531 0.02799,0.06531c0,0 0,0.15014 0,0.20524c0,0.03715 -0.03732,0.03732 -0.03732,0.03732c0,0 -0.02034,0.05598 -0.05598,0.05598c-0.04781,0 -0.21458,0.03732 -0.21458,0.03732z" fill-opacity="0.56471" fill="#ffffff" stroke="none" stroke-width="0"/><path d="M244.67785,179.15956c0,0 -0.07949,-0.51905 -0.21577,-0.76728c-0.15254,-0.27785 -0.65623,-0.82101 -0.65623,-0.82101l0.74743,-0.04671c0,0 0.27362,0.62772 0.35372,0.87906c0.06866,0.21545 0.23799,1.2698 0.23799,1.2698z" fill-opacity="0.56471" fill="#ffffff" stroke="none" stroke-width="0"/><path d="M243.48924,177.20794c0,0 -0.09073,-0.10818 -0.11079,-0.197c-0.01218,-0.05393 -0.01378,-0.06771 -0.01378,-0.06771c0,0 0.12875,-0.04456 0.22987,-0.03214c0.04303,0.00528 0.18794,-0.0203 0.2579,-0.04018c0.18663,-0.05303 0.38423,0.11903 0.38423,0.11903c0,0 0.26304,0.45799 0.27046,0.54451c0.00809,0.09445 -0.22374,0.00049 -0.22374,0.00049c0,0 -0.30347,-0.34144 -0.56763,-0.25316c-0.03088,0.01032 -0.06906,0.01089 -0.10228,-0.02683c-0.04289,-0.04869 -0.12423,-0.04702 -0.12423,-0.04702z" fill-opacity="0.56471" fill="#ffffff" stroke="none" stroke-width="0"/><path d="M244.95813,181.01688c0,0.13786 -0.05805,0.22112 -0.08054,0.28743c-0.02592,0.07641 -0.01992,0.12521 -0.07517,0.12521c-0.06123,0 -0.02216,-0.14696 -0.14967,-0.1688c-0.09134,-0.01565 -0.06834,-0.12318 -0.06834,-0.24384c0,-0.11734 0.09094,-0.14804 0.11315,-0.2364c0.03394,-0.13506 0.01132,-0.30081 0.07371,-0.30081c0.07871,0 0.19276,-0.04696 0.22029,0.15106c0.00857,0.06162 -0.03344,0.31573 -0.03344,0.38615z" fill-opacity="0.56471" fill="#ffffff" stroke="none" stroke-width="0"/><path d="M235.08585,182.9884c0,0 -0.42097,-0.81768 -0.5417,-1.30456c-0.11256,-0.45392 -0.25245,-0.94105 -0.25245,-1.24916c0,-0.50049 0.109,-1.23014 0.109,-1.23014c0,0 0.02189,-1.053 0.33233,-1.13348c0.19991,-0.05183 0.80439,0.68191 0.80439,0.68191c0,0 0.47797,-0.10077 0.7535,-0.05084c0.22222,0.04027 0.31911,0.33033 0.50656,0.51557c0.1243,0.12283 -0.02702,0.80163 0.05812,0.98248c0.12031,0.25556 -0.23428,0.85297 -0.14702,1.1624c0.04112,0.14582 -0.29214,0.52733 -0.25307,0.67595c0.03751,0.14269 0.15086,0.62522 0.18355,0.7605c0.02262,0.09363 -0.11121,0.35564 -0.09024,0.44273c0.03416,0.14186 0.23561,0.45923 0.2607,0.57494c0.03234,0.14913 -0.25123,0.33514 -0.22928,0.42587c0.07689,0.31781 0.38975,0.6144 0.38975,0.6144c0,0 -0.62024,-0.48563 -0.93456,-0.65696c-0.30614,-0.16688 -0.22662,-0.39171 -0.37958,-0.50615c-0.37737,-0.28233 -0.57,-0.70546 -0.57,-0.70546z" fill-opacity="0.56471" fill="#ffffff" stroke="none" stroke-width="0"/><path d="M234.66542,178.09292c0,0 0.44681,-0.95571 0.72563,-1.35c0.22195,-0.31387 0.81594,-0.83 0.81594,-0.83c0,0 0.48475,-0.12387 0.6488,-0.10997c0.13745,0.01165 0.26991,0.18783 0.26991,0.18783c0,0 -0.45346,0.31578 -0.48727,0.62576c-0.01825,0.1673 -0.13558,0.57324 -0.13558,0.57324c0,0 -0.59461,0.11285 -0.94702,0.17248c-0.16417,0.02778 -0.89041,0.73066 -0.89041,0.73066z" fill-opacity="0.56471" fill="#ffffff" stroke="none" stroke-width="0"/><path d="M236.78846,175.60783c-0.02703,0.0152 0.04821,0.03096 0.01223,0.04533c-0.11047,0.04411 -0.25742,0.13735 -0.2791,0.09881c-0.02874,-0.05109 0.20846,-0.17384 0.3185,-0.23574c0.11005,-0.0619 0.23813,-0.10181 0.26687,-0.05071c0.02874,0.05109 -0.20846,0.08041 -0.3185,0.14231z" fill-opacity="0.56471" fill="#ffffff" stroke="none" stroke-width="0"/><path d="M235.50887,177.80383l0.03893,-0.10381c0,0 0.02593,-0.06392 0.10357,-0.05049c0.0722,0.01249 0.15545,-0.04034 0.20786,-0.04034c0.08329,0 0.19464,0 0.19464,0c0,0 -0.01743,0.0936 -0.00813,0.12847c0.0077,0.02887 0.06004,0.06617 0.06004,0.06617c0,0 -0.22962,-0.11678 -0.28548,-0.07786c-0.08485,0.05913 -0.31143,0.07786 -0.31143,0.07786z" fill-opacity="0.56471" fill="#ffffff" stroke="none" stroke-width="0"/><path d="M236.17066,178.10229l0.02595,-0.09084c0,0 0.10196,-0.07109 0.14981,-0.07827c0.03304,-0.00496 -0.08493,0.10422 -0.08493,0.10422l0.10381,0.03893c0,0 -0.04834,0.06488 -0.09084,0.06488c-0.05107,0 -0.10381,-0.03893 -0.10381,-0.03893z" fill-opacity="0.56471" fill="#ffffff" stroke="none" stroke-width="0"/><path d="M237.31256,176.0452c0,0 -0.10768,-0.20929 -0.0641,-0.31751c0.03437,-0.08533 0.2217,-0.06364 0.22482,-0.13084c0.0015,-0.03222 -0.14329,-0.09557 -0.15645,-0.14227c-0.03471,-0.12312 0.03466,-0.24634 0.03466,-0.24634c0,0 0.40139,-0.20367 0.54425,-0.2551c0.26427,-0.09514 1.12967,-0.30936 1.12967,-0.30936c0,0 0.01398,0.17942 -0.17559,0.42355c-0.05528,0.07119 -0.23472,0.09446 -0.30436,0.18663c-0.02717,0.03597 -0.21783,-0.07123 -0.24612,-0.03748c-0.03816,0.04552 -0.0153,0.26406 -0.04667,0.30374c-0.07803,0.09865 -0.13039,0.17449 -0.13376,0.20395c-0.01062,0.0929 -0.04726,0.24319 -0.04726,0.24319c0,0 -0.0074,0.12191 -0.02068,0.18687c-0.03847,0.18816 -0.20418,0.435 -0.30464,0.41182c-0.11444,-0.02641 -0.43379,-0.52083 -0.43379,-0.52083z" fill-opacity="0.56471" fill="#ffffff" stroke="none" stroke-width="0"/><path d="M240.62149,175.24716c0,0 -0.09942,-0.14673 -0.11379,-0.2186c-0.02156,-0.1078 0.09433,-0.34587 0.09433,-0.34587l0.52554,0.13625c0,0 0.28918,0.02895 0.27564,0.09392c-0.01775,0.0852 -0.3535,0.15911 -0.3535,0.15911c0,0 -0.17964,0.01207 -0.22462,0.04321c-0.03828,0.0265 -0.20359,0.13197 -0.20359,0.13197z" fill-opacity="0.56471" fill="#ffffff" stroke="none" stroke-width="0"/><path d="M245.1503,180.08945c0,3.00255 -2.45803,5.43661 -5.49017,5.43661c-3.03214,0 -5.49017,-2.43405 -5.49017,-5.43661c0,-3.00255 2.45803,-5.43661 5.49017,-5.43661c3.03214,0 5.49017,2.43405 5.49017,5.43661z" fill="url(#color-4)" stroke="#000000" stroke-width="0.5"/><path d="M244.64682,178.47892c0,0.19691 0.25944,0.42874 0.33891,0.74685c0.12566,0.50295 0.09066,1.14925 0.0682,1.66441c-0.02928,0.67168 -0.40825,1.11508 -0.63634,1.66306c-0.53354,1.28179 -0.81818,1.42121 -1.53031,1.42121c-1.39774,0 -3.7842,-2.94059 -3.7842,-2.94059c0,0 -4.36243,-5.15808 -2.96469,-5.15808c0.35471,0 1.10637,-0.88199 2.56508,-1.10406c1.02408,-0.1559 2.81223,0.25791 3.26562,0.47723c1.44558,0.69931 2.67773,2.1713 2.67773,3.22997z" fill-opacity="0.21569" fill="#ffffff" stroke="#000000" stroke-width="0"/><text transform="translate(221.54853,185.26879) scale(0.39717,0.39717)" font-size="40" xml:space="preserve" fill="#424242" fill-rule="nonzero" stroke="none" stroke-width="1" stroke-linecap="butt" stroke-linejoin="miter" stroke-miterlimit="10" stroke-dasharray="" stroke-dashoffset="0" font-family="&quot;Microsoft YaHei&quot;, &quot;微软雅黑&quot;, STXihei, &quot;华文细黑&quot;" font-weight="normal" text-anchor="start" style="mix-blend-mode: normal"><tspan x="0" dy="0">&lt;   &gt;</tspan></text></g></g></svg>