<svg version="1.1" xmlns="http://www.w3.org/2000/svg" xmlns:xlink="http://www.w3.org/1999/xlink" width="70.08255" height="54.4649" viewBox="0,0,70.08255,54.4649"><defs><linearGradient x1="231.99957" y1="63.87105" x2="302.08212" y2="63.87105" gradientUnits="userSpaceOnUse" id="color-1"><stop offset="0" stop-color="#ff7b00"/><stop offset="1" stop-color="#ffa000"/></linearGradient></defs><g transform="translate(-231.99957,-36.6386)"><g data-paper-data="{&quot;isPaintingLayer&quot;:true}" fill-rule="nonzero" stroke-linejoin="miter" stroke-miterlimit="10" stroke-dasharray="" stroke-dashoffset="0" style="mix-blend-mode: normal"><path d="M238.65153,72.1873v-13.96554h17.77432v13.96554z" fill="#d10000" stroke="none" stroke-width="0" stroke-linecap="butt"/><path d="M260.23463,83.61365v-25.39188h36.81823v25.39188z" fill="#00ff46" stroke="none" stroke-width="0" stroke-linecap="butt"/><path d="M232.65577,90.18482c0,0 -0.6562,-0.3523 -0.6562,-2.49357c0,-10.38179 0,-41.2217 0,-46.85295c0,-1.68291 0.91869,-2.8873 0.91869,-2.8873c0,0 0.77276,-1.3124 2.75606,-1.3124c7.09548,0 49.28275,0 62.47059,0c2.48234,0 2.62481,0.6562 2.62481,0.6562c0,0 1.3124,1.08799 1.3124,3.01854c0,5.90323 0,36.45523 0,47.11542c0,2.30059 -0.6562,2.8873 -0.6562,2.8873c0,0 -0.76804,0.78744 -2.49357,0.78744c-6.49891,0 -48.3708,-0.13124 -62.99556,-0.13124c-3.27515,0 -3.28102,-0.78744 -3.28102,-0.78744z" fill="url(#color-1)" stroke="none" stroke-width="0" stroke-linecap="butt"/><path d="M288.98602,63.63241c0,12.19768 -9.80027,22.08585 -21.88953,22.08585c-12.08925,0 -21.88953,-9.88817 -21.88953,-22.08585c0,-12.19768 9.80027,-22.08585 21.88953,-22.08585c12.08925,0 21.88953,9.88817 21.88953,22.08585z" fill="none" stroke="#ffffff" stroke-width="4" stroke-linecap="butt"/><path d="M251.33491,77.51494l10.30673,-11.14809l12.83082,16.19629" fill="none" stroke="#ffffff" stroke-width="4" stroke-linecap="round"/><path d="M268.37256,74.35982l17.66868,-18.93072" fill="none" stroke="#ffffff" stroke-width="4" stroke-linecap="round"/><path d="M267.74154,53.43085c0,2.72996 -2.26015,4.94302 -5.04819,4.94302c-2.78804,0 -5.04819,-2.21307 -5.04819,-4.94302c0,-2.72996 2.26015,-4.94302 5.04819,-4.94302c2.78804,0 5.04819,2.21307 5.04819,4.94302z" fill="none" stroke="#ffffff" stroke-width="4" stroke-linecap="butt"/></g></g></svg>