<svg version="1.1" xmlns="http://www.w3.org/2000/svg" xmlns:xlink="http://www.w3.org/1999/xlink" width="70.08255" height="54.4649" viewBox="0,0,70.08255,54.4649"><defs><linearGradient x1="231.9996" y1="63.87105" x2="302.08214" y2="63.87105" gradientUnits="userSpaceOnUse" id="color-1"><stop offset="0" stop-color="#ffffff"/><stop offset="1" stop-color="#dadada"/></linearGradient><linearGradient x1="236.07423" y1="64.15548" x2="297.70351" y2="64.15548" gradientUnits="userSpaceOnUse" id="color-2"><stop offset="0" stop-color="#171717"/><stop offset="1" stop-color="#2c2c2c"/></linearGradient><linearGradient x1="266.86981" y1="70.94006" x2="266.86981" y2="87.60966" gradientUnits="userSpaceOnUse" id="color-3"><stop offset="0" stop-color="#e8a902"/><stop offset="1" stop-color="#e8a902" stop-opacity="0"/></linearGradient><linearGradient x1="266.86981" y1="70.94006" x2="266.86981" y2="87.60966" gradientUnits="userSpaceOnUse" id="color-4"><stop offset="0" stop-color="#e8a902"/><stop offset="1" stop-color="#e8a902" stop-opacity="0"/></linearGradient><linearGradient x1="236.13745" y1="64.21871" x2="297.86958" y2="64.21871" gradientUnits="userSpaceOnUse" id="color-5"><stop offset="0" stop-color="#2c2c2c" stop-opacity="0"/><stop offset="1" stop-color="#2c2c2c" stop-opacity="0"/></linearGradient></defs><g transform="translate(-231.99959,-36.6386)"><g data-paper-data="{&quot;isPaintingLayer&quot;:true}" fill-rule="nonzero" stroke-linecap="butt" stroke-linejoin="miter" stroke-miterlimit="10" stroke-dasharray="" stroke-dashoffset="0" style="mix-blend-mode: normal"><path d="M232.6558,90.18482c0,0 -0.6562,-0.3523 -0.6562,-2.49357c0,-10.38179 0,-41.2217 0,-46.85295c0,-1.68291 0.91869,-2.8873 0.91869,-2.8873c0,0 0.77276,-1.3124 2.75606,-1.3124c7.09548,0 49.28275,0 62.47059,0c2.48234,0 2.62481,0.6562 2.62481,0.6562c0,0 1.3124,1.08799 1.3124,3.01854c0,5.90323 0,36.45523 0,47.11542c0,2.30059 -0.6562,2.8873 -0.6562,2.8873c0,0 -0.76804,0.78744 -2.49357,0.78744c-6.49891,0 -48.3708,-0.13124 -62.99556,-0.13124c-3.27515,0 -3.28102,-0.78744 -3.28102,-0.78744z" fill="url(#color-1)" stroke="none" stroke-width="0"/><path d="M236.65128,87.00567c0,0 -0.57705,-0.30593 -0.57705,-2.16535c0,-9.01527 0,-35.79584 0,-40.68587c0,-1.46139 0.80788,-2.50725 0.80788,-2.50725c0,0 0.67956,-1.13966 2.42363,-1.13966c6.23963,0 43.33832,0 54.93546,0c2.18292,0 2.30821,0.56983 2.30821,0.56983c0,0 1.1541,0.94478 1.1541,2.62122c0,5.12621 0,31.65676 0,40.91379c0,1.99777 -0.57705,2.50726 -0.57705,2.50726c0,0 -0.6754,0.68379 -2.19279,0.68379c-5.71502,0 -42.53638,-0.11397 -55.39712,-0.11397c-2.88011,0 -2.88527,-0.68379 -2.88527,-0.68379z" fill="url(#color-2)" stroke="#484848" stroke-width="1.5"/><path d="M236.75168,41.49798l59.96125,-0.51425l0.6171,45.97372z" fill="#0e0e0e" stroke="#484848" stroke-width="0"/><path d="M239.05602,87.60966v-16.6696c0,0 5.44839,5.45102 10.55185,5.45102c1.70046,0 4.13556,-0.15911 7.00466,-0.42295c0.08351,-0.00768 3.15003,-7.00921 3.23427,-7.01707c2.33373,-0.21764 5.16918,5.55548 7.75947,5.55768c1.66037,0.00141 3.34167,-0.0566 5.01104,-0.15878c4.36351,-0.26707 7.92557,-5.87548 11.53911,-6.47333c5.74989,-0.95131 10.52718,3.06343 10.52718,3.06343v16.6696z" fill="url(#color-3)" stroke="url(#color-4)" stroke-width="4.5"/><path d="M236.71547,87.06889c0,0 -0.57802,-0.30592 -0.57802,-2.16535c0,-9.01528 0,-35.79584 0,-40.68586c0,-1.46139 0.80923,-2.50725 0.80923,-2.50725c0,0 0.68069,-1.13966 2.42767,-1.13966c6.25005,0 43.41065,0 55.02714,0c2.18656,0 2.31206,0.56983 2.31206,0.56983c0,0 1.15603,0.94478 1.15603,2.62122c0,5.12621 0,31.65677 0,40.91379c0,1.99777 -0.57802,2.50726 -0.57802,2.50726c0,0 -0.67653,0.68379 -2.19645,0.68379c-5.72456,0 -42.60736,-0.11397 -55.48956,-0.11397c-2.88491,0 -2.89008,-0.6838 -2.89008,-0.6838z" fill="url(#color-5)" stroke="#484848" stroke-width="1.5"/></g></g></svg>