<svg version="1.1" xmlns="http://www.w3.org/2000/svg" xmlns:xlink="http://www.w3.org/1999/xlink" width="36" height="33.00001" viewBox="0,0,36,33.00001"><defs><linearGradient x1="222.14287" y1="180.57144" x2="258.14286" y2="180.57144" gradientUnits="userSpaceOnUse" id="color-1"><stop offset="0" stop-color="#ffffff"/><stop offset="1" stop-color="#9f9f9f"/></linearGradient><linearGradient x1="229.87914" y1="176.489" x2="250.11354" y2="176.489" gradientUnits="userSpaceOnUse" id="color-2"><stop offset="0" stop-color="#003761"/><stop offset="1" stop-color="#000d3c"/></linearGradient><linearGradient x1="230.90281" y1="177.88226" x2="250.12086" y2="177.88226" gradientUnits="userSpaceOnUse" id="color-3"><stop offset="0" stop-color="#cecece"/><stop offset="1" stop-color="#999999"/></linearGradient><linearGradient x1="229.87914" y1="181.89409" x2="250.11354" y2="181.89409" gradientUnits="userSpaceOnUse" id="color-4"><stop offset="0" stop-color="#003761"/><stop offset="1" stop-color="#000d3c"/></linearGradient></defs><g transform="translate(-222.14287,-164.07145)"><g data-paper-data="{&quot;isPaintingLayer&quot;:true}" fill-rule="nonzero" stroke="none" stroke-width="0" stroke-linecap="butt" stroke-linejoin="miter" stroke-miterlimit="10" stroke-dasharray="" stroke-dashoffset="0" style="mix-blend-mode: normal"><path d="M223.14287,196.07144c0,0 -1,-0.54524 -1,-2.93254c0,-6.91865 0,-20.90979 0,-24.85714c0,-2.03041 1.14286,-2.9246 1.14286,-2.9246c0,0 1.22237,-1.28571 3.42857,-1.28571c4.35742,0 19.98303,0 27.42857,0c2.43883,0 3.14286,1.14286 3.14286,1.14286c0,0 0.85714,0.84635 0.85714,3.79762c0,7.186 0,20.0757 0,23.84127c0,2.03363 -0.85714,3.21826 -0.85714,3.21826c0,0 -0.70303,1 -3.14286,1c-7.52613,0 -23.42249,0 -27.71429,0c-2.08915,0 -3.28571,-1 -3.28571,-1z" fill="url(#color-1)"/><path d="M229.87914,184.9893v-17.00059h20.23441v17.00059z" fill="url(#color-2)"/><path d="M230.90281,186.38256v-17.00059h19.21807v17.00059z" fill="url(#color-3)"/><path d="M229.87914,192.01129v-20.23441h20.23441v20.23441z" fill="url(#color-4)"/><path d="M234.22329,185.05164l0.02853,-6.93829l2.70109,0.01111c0,0 -0.02027,4.92701 -0.02487,6.04577c-0.00177,0.42985 -0.00367,0.89252 -0.00367,0.89252z" fill="#ffffff"/><path d="M236.4482,187.02446l0.01113,-2.70806l6.17896,0.02541l-0.01113,2.70806z" fill="#ffffff"/><path d="M242.61681,184.4434l0.02205,-5.36234l2.70109,0.01111l-0.02205,5.36234z" fill="#ffffff"/><path d="M236.92802,179.05634l0.01095,-2.6625l5.94491,0.02444l-0.01095,2.6625z" fill="#ffffff"/><path d="M234.26105,179.06212c0,0 -0.0143,-1.03503 -0.01228,-1.52588c0.00144,-0.35057 0.33896,-0.76845 0.33896,-0.76845c0,0 0.4611,-0.37107 0.73558,-0.36994c0.48889,0.00201 1.63117,0.00671 1.63117,0.00671l-0.01097,2.6686z" fill="#feffff"/><path d="M234.2162,185.88444c0.00205,-0.49847 0.00647,-1.57274 0.00647,-1.57274l2.70344,0.01112l-0.01112,2.70344c0,0 -1.16736,-0.0048 -1.66049,-0.00683c-0.12606,-0.00052 -0.61846,-0.27482 -0.73962,-0.44579c-0.14632,-0.20647 -0.29868,-0.6892 -0.29868,-0.6892z" fill="#feffff"/><path d="M242.59214,187.0648l0.01112,-2.70344l2.70344,0.01112c0,0 -0.00281,0.68376 -0.00482,1.17278c-0.0016,0.38908 -0.43275,0.99223 -0.43275,0.99223c0,0 -0.48359,0.53469 -0.81731,0.53332c-0.49907,-0.00206 -1.45967,-0.006 -1.45967,-0.006z" fill="#feffff"/><path d="M242.65531,179.09127l0.01099,-2.67307c0,0 0.90311,0.02229 1.39379,0.0243c0.35736,0.00148 0.76597,0.45881 0.76597,0.45881c0,0 0.52717,0.67114 0.52557,1.05862c-0.00198,0.48252 -0.02327,1.14233 -0.02327,1.14233z" fill="#feffff"/><path d="M236.78245,185.62155l-1.05457,-1.41371l1.17562,-0.87696c0,0 0.11877,0.53188 0.27916,0.74688c0.18704,0.25072 0.68403,0.31372 0.68403,0.31372z" fill="#ffffff"/><path d="M235.84434,179.49839l0.77554,-1.20088l1.06051,0.68489c0,0 -0.42732,0.22011 -0.56339,0.43081c-0.12057,0.1867 -0.21215,0.77007 -0.21215,0.77007z" fill="#ffffff"/><path d="M242.73499,180.22285c0,0 -0.18347,-0.74565 -0.41221,-0.96047c-0.1941,-0.18228 -0.87346,-0.24689 -0.87346,-0.24689l0.73713,-0.78495l1.28568,1.20736z" fill="#ffffff"/><path d="M241.66848,184.46097c0,0 0.59418,-0.18773 0.75569,-0.37079c0.18033,-0.20439 0.27606,-0.79862 0.27606,-0.79862l1.14157,1.00719l-1.03175,1.16941z" fill="#ffffff"/><path d="M238.18316,187.02015l0.01104,-2.6843l3.27425,0.01346l-0.01104,2.6843z" fill="#ff0000"/><path d="M238.11285,179.08222l0.01104,-2.6843l3.27425,0.01346l-0.01104,2.6843z" fill="#ff0000"/><path d="M234.25698,183.19384l0.01199,-2.91475l2.67341,0.01099l-0.01199,2.91475z" fill="#ff0000"/><path d="M242.61982,183.2181l0.01199,-2.91475l2.69196,0.01107l-0.01199,2.91475z" fill="#ff0000"/><path d="M231.37694,170.04479v-0.07013h18.65391v0.07013z" fill="#000000"/><path d="M231.47695,170.64479v-0.07012h18.65391v0.07012z" fill="#000000"/><path d="M231.42695,171.24479v-0.07012h18.65391v0.07012z" fill="#000000"/></g></g></svg>