<svg version="1.1" xmlns="http://www.w3.org/2000/svg" xmlns:xlink="http://www.w3.org/1999/xlink" width="67.78277" height="57.207" viewBox="0,0,67.78277,57.207"><defs><linearGradient x1="19.33188" y1="149.25785" x2="19.33188" y2="186.8931" gradientUnits="userSpaceOnUse" id="color-1"><stop offset="0" stop-color="#262626"/><stop offset="1" stop-color="#1a1a1a"/></linearGradient><linearGradient x1="19.33188" y1="161.8652" x2="19.33188" y2="174.28578" gradientUnits="userSpaceOnUse" id="color-2"><stop offset="0" stop-color="#e6e6e6"/><stop offset="1" stop-color="#d7d7d7"/></linearGradient><linearGradient x1="20.83147" y1="140.48924" x2="20.83147" y2="154.30594" gradientUnits="userSpaceOnUse" id="color-3"><stop offset="0" stop-color="#312530"/><stop offset="1" stop-color="#322227"/></linearGradient><linearGradient x1="-4.67912" y1="136.75192" x2="-4.01537" y2="173.44643" gradientUnits="userSpaceOnUse" id="color-4"><stop offset="0" stop-color="#332632"/><stop offset="1" stop-color="#332020"/></linearGradient><linearGradient x1="2.36137" y1="132.53072" x2="2.36137" y2="137.36679" gradientUnits="userSpaceOnUse" id="color-5"><stop offset="0" stop-color="#302633"/><stop offset="1" stop-color="#322633"/></linearGradient><linearGradient x1="22.54888" y1="133.5975" x2="22.54888" y2="169.16324" gradientUnits="userSpaceOnUse" id="color-6"><stop offset="0" stop-color="#302633"/><stop offset="1" stop-color="#332020"/></linearGradient><linearGradient x1="41.91936" y1="134.0716" x2="41.91936" y2="169.63734" gradientUnits="userSpaceOnUse" id="color-7"><stop offset="0" stop-color="#302633"/><stop offset="1" stop-color="#332020"/></linearGradient><linearGradient x1="20.696" y1="137.64462" x2="20.696" y2="151.46132" gradientUnits="userSpaceOnUse" id="color-8"><stop offset="0" stop-color="#ea76de"/><stop offset="1" stop-color="#f75ca2"/></linearGradient><linearGradient x1="-4.81459" y1="133.90731" x2="-4.15084" y2="170.60182" gradientUnits="userSpaceOnUse" id="color-9"><stop offset="0" stop-color="#ea76df"/><stop offset="1" stop-color="#ff3f3f"/></linearGradient><linearGradient x1="2.2259" y1="129.68611" x2="2.2259" y2="134.52218" gradientUnits="userSpaceOnUse" id="color-10"><stop offset="0" stop-color="#e681ff"/><stop offset="1" stop-color="#e87cef"/></linearGradient><linearGradient x1="22.41341" y1="130.75288" x2="22.41341" y2="166.31862" gradientUnits="userSpaceOnUse" id="color-11"><stop offset="0" stop-color="#e681ff"/><stop offset="1" stop-color="#ff3f3f"/></linearGradient><linearGradient x1="41.78389" y1="131.22698" x2="41.78389" y2="166.79272" gradientUnits="userSpaceOnUse" id="color-12"><stop offset="0" stop-color="#e681ff"/><stop offset="1" stop-color="#ff3f3f"/></linearGradient></defs><g transform="translate(14.55952,-129.68611)"><g data-paper-data="{&quot;isPaintingLayer&quot;:true}" fill-rule="nonzero" stroke-linejoin="miter" stroke-miterlimit="10" stroke-dasharray="" stroke-dashoffset="0" style="mix-blend-mode: normal"><g><g><path d="M-14.55952,168.07549c0,-10.3927 15.17368,-18.81761 33.89138,-18.81761c18.7177,0 33.89139,8.42493 33.89139,18.81761c0,10.3927 -15.17368,18.81762 -33.89138,18.81762c-18.7177,0 -33.89138,-8.42494 -33.89138,-18.81762z" fill="url(#color-1)" stroke="none" stroke-width="0" stroke-linecap="butt"/><path d="M8.14688,168.07549c0,-3.42984 5.0077,-6.21028 11.185,-6.21028c6.1773,0 11.18499,2.78044 11.18499,6.21028c0,3.42984 -5.0077,6.21029 -11.18499,6.21029c-6.1773,0 -11.185,-2.78045 -11.185,-6.21029z" fill="url(#color-2)" stroke="none" stroke-width="0" stroke-linecap="butt"/><path d="M47.39949,152.00189c0,0 0.05557,9.64039 -1.16091,14.11702c-1.19392,4.39365 -6.57607,10.81653 -6.57607,10.81653" fill="none" stroke="#404040" stroke-width="4.5" stroke-linecap="round"/><path d="M35.28943,153.86965l1.00917,-5.61105h12.95105l1.00917,5.61105z" fill="#404040" stroke="#404040" stroke-width="0" stroke-linecap="butt"/></g><g><g><path d="M29.70398,144.75616c0,0 -6.23075,10.91788 -11.92028,9.54978c-5.68953,-1.3681 -5.8247,-13.8167 -5.8247,-13.8167" fill="none" stroke="url(#color-3)" stroke-width="4" stroke-linecap="round"/><path d="M0.54239,141.19903l-9.61825,27.63158" fill="none" stroke="url(#color-4)" stroke-width="4" stroke-linecap="round"/><path d="M-0.05666,134.94876c0,-1.33544 1.08261,-2.41804 2.41803,-2.41804c1.33544,0 2.41803,1.08262 2.41803,2.41804c0,1.33544 -1.08259,2.41803 -2.41803,2.41803c-1.33544,0 -2.41803,-1.08259 -2.41803,-2.41803z" fill="url(#color-5)" stroke="none" stroke-width="2" stroke-linecap="butt"/><path d="M13.14759,136.30824l-10.42455,32.85499" fill="none" stroke="url(#color-6)" stroke-width="4" stroke-linecap="round"/><path d="M22.09352,169.63734l10.42456,-32.85497" fill="none" stroke="url(#color-7)" stroke-width="4" stroke-linecap="round"/></g><g><path d="M29.56851,141.91154c0,0 -6.23075,10.91788 -11.92028,9.54978c-5.68953,-1.3681 -5.8247,-13.8167 -5.8247,-13.8167" fill="none" stroke="url(#color-8)" stroke-width="4" stroke-linecap="round"/><path d="M0.40694,138.35444l-9.61825,27.63155" fill="none" stroke="url(#color-9)" stroke-width="4" stroke-linecap="round"/><path d="M-0.19213,132.10414c0,-1.33544 1.08259,-2.41803 2.41803,-2.41803c1.33544,0 2.41803,1.08261 2.41803,2.41803c0,1.33544 -1.08259,2.41801 -2.41803,2.41801c-1.33544,0 -2.41803,-1.08257 -2.41803,-2.41801z" fill="url(#color-10)" stroke="none" stroke-width="2" stroke-linecap="butt"/><path d="M13.01215,133.46363l-10.42455,32.855" fill="none" stroke="url(#color-11)" stroke-width="4" stroke-linecap="round"/><path d="M32.38261,133.93773l-10.42456,32.85497" fill="none" stroke="url(#color-12)" stroke-width="4" stroke-linecap="round"/></g></g></g></g></g></svg>