<svg version="1.1" xmlns="http://www.w3.org/2000/svg" xmlns:xlink="http://www.w3.org/1999/xlink" width="70.08255" height="54.4649" viewBox="0,0,70.08255,54.4649"><defs><linearGradient x1="231.99959" y1="63.87105" x2="302.08214" y2="63.87105" gradientUnits="userSpaceOnUse" id="color-1"><stop offset="0" stop-color="#ffffff"/><stop offset="1" stop-color="#dadada"/></linearGradient><linearGradient x1="265.14882" y1="41.67409" x2="265.14882" y2="79.53603" gradientUnits="userSpaceOnUse" id="color-2"><stop offset="0" stop-color="#944800"/><stop offset="1" stop-color="#5c2900"/></linearGradient><linearGradient x1="265.95932" y1="61.47345" x2="265.95932" y2="81.62017" gradientUnits="userSpaceOnUse" id="color-3"><stop offset="0" stop-color="#8a9400"/><stop offset="1" stop-color="#bbcb00"/></linearGradient><linearGradient x1="270.13196" y1="78.1268" x2="286.43564" y2="78.1268" gradientUnits="userSpaceOnUse" id="color-4"><stop offset="0" stop-color="#aaff66"/><stop offset="1" stop-color="#579e3f"/></linearGradient></defs><g transform="translate(-231.99958,-36.6386)"><g data-paper-data="{&quot;isPaintingLayer&quot;:true}" fill-rule="nonzero" stroke-linejoin="miter" stroke-miterlimit="10" stroke-dasharray="" stroke-dashoffset="0" style="mix-blend-mode: normal"><path d="M232.65578,90.18482c0,0 -0.6562,-0.3523 -0.6562,-2.49357c0,-10.38179 0,-41.2217 0,-46.85295c0,-1.68291 0.91869,-2.8873 0.91869,-2.8873c0,0 0.77276,-1.3124 2.75606,-1.3124c7.09548,0 49.28275,0 62.47059,0c2.48234,0 2.62481,0.6562 2.62481,0.6562c0,0 1.3124,1.08799 1.3124,3.01854c0,5.90323 0,36.45523 0,47.11542c0,2.30059 -0.6562,2.8873 -0.6562,2.8873c0,0 -0.76804,0.78744 -2.49357,0.78744c-6.49891,0 -48.3708,-0.13124 -62.99556,-0.13124c-3.27515,0 -3.28102,-0.78744 -3.28102,-0.78744z" fill="url(#color-1)" stroke="none" stroke-width="0" stroke-linecap="butt"/><path d="M264.19359,81.27282c0,0 0,-30.34982 0,-35.32623c0,-1.33327 0.34736,-1.84099 0.34736,-1.84099c0,0 0.35922,-0.69472 1.19838,-0.69472c0.80543,0 1.733,0 2.27519,0c0.85102,0 1.63258,0.55577 1.63258,0.55577c0,0 0.62524,0.77739 0.62524,2.22309c0,5.1368 0,35.08308 0,35.08308z" fill="#acacac" stroke="none" stroke-width="NaN" stroke-linecap="butt"/><path d="M253.36762,83.35696c0,0 0.13464,-10.85487 2.72653,-14.45302c2.29205,-3.18191 11.34144,-5.86738 11.34144,-5.86738c0,0 9.79645,2.58422 12.04263,5.73957c2.57244,3.61366 3.24109,14.58083 3.24109,14.58083c0,0 -1.92285,0.24591 -3.56876,-0.67368c-0.27838,-0.15553 -0.21142,-3.60614 -0.48654,-3.61059c-0.27504,-0.00444 -0.3601,3.43845 -0.61057,3.67254c-1.09738,1.02564 -2.20968,0.49998 -3.66491,0.28333c-0.27504,-0.04094 -0.31882,-3.71663 -0.59327,-3.73067c-0.44203,-0.02262 -0.07962,3.94544 -0.53043,3.91439c-0.59772,-0.04116 -1.42833,-1.05969 -2.02006,-1.08493c-0.71611,-0.03055 -0.79578,1.14683 -1.5003,1.09911c-0.40906,-0.02771 -0.52594,-2.01791 -0.92733,-2.03298c-0.61972,-0.02327 -0.08085,1.91913 -0.69306,1.89019c-0.38606,-0.01825 -0.76941,-1.88441 -1.14854,-1.89276c-1.53122,-0.0337 -2.60701,2.22691 -3.94561,2.14277c-0.25461,-0.016 1.17293,-3.56053 0.92533,-3.57042c-0.73801,-0.02949 -1.67201,3.69674 -2.32499,3.65147c-0.60302,-0.0418 1.13639,-3.54122 0.59519,-3.54823c-0.43541,-0.00564 -2.2324,3.63471 -2.60713,3.62641c-0.58936,-0.01305 -1.15491,-1.17802 -1.56138,-1.17802c-2.06578,0 -4.68932,1.04207 -4.68932,1.04207z" fill="#acacac" stroke="none" stroke-width="0" stroke-linecap="butt"/><path d="M262.10944,79.53603c0,0 0,-30.34982 0,-35.32623c0,-1.33327 0.34736,-1.84099 0.34736,-1.84099c0,0 0.35922,-0.69472 1.19838,-0.69472c0.80543,0 1.733,0 2.27519,0c0.85102,0 1.63258,0.55577 1.63258,0.55577c0,0 0.62524,0.77739 0.62524,2.22309c0,5.1368 0,35.08308 0,35.08308z" fill="url(#color-2)" stroke="none" stroke-width="NaN" stroke-linecap="butt"/><path d="M251.28348,81.62017c0,0 0.13464,-10.85487 2.72653,-14.45302c2.29205,-3.18191 11.34144,-5.86738 11.34144,-5.86738c0,0 9.79645,2.58422 12.04263,5.73957c2.57244,3.61366 3.24109,14.58083 3.24109,14.58083c0,0 -1.92285,0.24591 -3.56876,-0.67368c-0.27838,-0.15553 -0.21142,-3.60614 -0.48654,-3.61059c-0.27504,-0.00444 -0.3601,3.43845 -0.61057,3.67254c-1.09738,1.02564 -2.20968,0.49998 -3.66491,0.28333c-0.27504,-0.04094 -0.31882,-3.71663 -0.59327,-3.73067c-0.44203,-0.02262 -0.07962,3.94544 -0.53043,3.91439c-0.59772,-0.04116 -1.42833,-1.05969 -2.02006,-1.08493c-0.71611,-0.03055 -0.79578,1.14683 -1.5003,1.09911c-0.40906,-0.02771 -0.52594,-2.01791 -0.92733,-2.03298c-0.61972,-0.02327 -0.08085,1.91913 -0.69306,1.89019c-0.38606,-0.01825 -0.76941,-1.88441 -1.14854,-1.89276c-1.53122,-0.0337 -2.60701,2.22691 -3.94561,2.14277c-0.25461,-0.016 1.17293,-3.56053 0.92533,-3.57042c-0.73801,-0.02949 -1.67201,3.69674 -2.32499,3.65147c-0.60302,-0.0418 1.13639,-3.54122 0.59519,-3.54823c-0.43541,-0.00564 -2.2324,3.63471 -2.60713,3.62641c-0.58936,-0.01305 -1.15491,-1.17802 -1.56138,-1.17802c-2.06578,0 -4.68932,1.04207 -4.68932,1.04207z" fill="url(#color-3)" stroke="none" stroke-width="0" stroke-linecap="butt"/><path d="M286.43564,78.1268c0,4.5291 -3.6497,8.20065 -8.15184,8.20065c-4.50213,0 -8.15184,-3.67156 -8.15184,-8.20065c0,-4.5291 3.6497,-8.20065 8.15184,-8.20065c4.50213,0 8.15184,3.67156 8.15184,8.20065z" fill="url(#color-4)" stroke="#ffffff" stroke-width="1" stroke-linecap="butt"/><path d="M281.45667,73.92885c0,0 -3.51671,5.43491 -4.44488,6.86935c-0.42333,0.65423 -0.9246,0.94079 -0.9246,0.94079c0,0 -0.31726,-0.07085 -0.54369,-0.4698c-0.37691,-0.66408 -1.50647,-2.65426 -1.50647,-2.65426" fill="none" stroke="#ffffff" stroke-width="2" stroke-linecap="round"/></g></g></svg>