<svg version="1.1" xmlns="http://www.w3.org/2000/svg" xmlns:xlink="http://www.w3.org/1999/xlink" width="37.46856" height="37.13101" viewBox="0,0,37.46856,37.13101"><defs><linearGradient x1="-18.73712" y1="83.32385" x2="18.73144" y2="83.32385" gradientUnits="userSpaceOnUse" id="color-1"><stop offset="0" stop-color="#9800ff"/><stop offset="1" stop-color="#bc00bf"/></linearGradient></defs><g transform="translate(18.73712,-64.75835)"><g data-paper-data="{&quot;isPaintingLayer&quot;:true}" fill-rule="nonzero" stroke="none" stroke-width="0" stroke-linecap="butt" stroke-linejoin="miter" stroke-miterlimit="10" stroke-dasharray="" stroke-dashoffset="0" style="mix-blend-mode: normal"><path d="M-17.77209,101.06219c0,0 -0.96503,-0.69405 -0.96503,-3.09546c0,-7.83417 0,-25.03601 0,-29.3491c0,-1.91921 0.82717,-2.75639 0.82717,-2.75639c0,0 0.83778,-1.10289 2.55043,-1.10289c4.12192,0 21.56326,0 29.778,0c2.62898,0 3.34793,1.24075 3.34793,1.24075c0,0 0.96503,1.59588 0.96503,4.13501c0,4.66403 0,20.41641 0,27.83262c0,2.39658 -0.82717,3.09546 -0.82717,3.09546c0,0 -0.74051,0.82717 -3.21007,0.82717c-8.01165,0 -25.51519,0 -29.778,0c-1.83304,0 -2.68829,-0.82717 -2.68829,-0.82717z" fill="url(#color-1)"/><g data-paper-data="{&quot;index&quot;:null}" fill="#ffffff"><path d="M-5.79769,78.49319l0.06741,-3.80891l15.11484,-3.50404l-0.0674,3.80892z"/><path d="M7.45299,89.10707l0.31118,-17.58331l2.09116,-0.48478l-0.31118,17.5833z"/><path d="M-6.37358,92.31596l0.31118,-17.58331l2.09116,-0.48478l-0.31118,17.5833z"/><path d="M-4.22069,91.60455c-0.03154,1.78225 -1.49284,3.55989 -3.26389,3.97048c-1.77106,0.41058 -3.18122,-0.70138 -3.14967,-2.48362c0.03154,-1.78225 1.49284,-3.55989 3.2639,-3.97047c1.77106,-0.41058 3.18122,0.70137 3.14968,2.48362z"/><path d="M-8.17944,90.44788c-0.85971,0.47034 -1.38442,1.16599 -1.50456,0.81337c-0.12014,-0.35263 0.47941,-1.01976 1.33912,-1.4901c0.85971,-0.47034 1.65402,-0.56576 1.77416,-0.21313c0.12014,0.35263 -0.74902,0.41953 -1.60872,0.88985z"/><path d="M9.60589,88.39565c-0.03154,1.78225 -1.49284,3.55989 -3.2639,3.97047c-1.77106,0.41058 -3.18122,-0.70138 -3.14967,-2.48362c0.03154,-1.78225 1.49284,-3.55989 3.2639,-3.97047c1.77106,-0.41058 3.18122,0.70138 3.14968,2.48362z"/><path d="M5.60159,87.37019c-0.85971,0.47034 -1.38442,1.16599 -1.50457,0.81337c-0.12014,-0.35263 0.47942,-1.01976 1.33912,-1.4901c0.85971,-0.47034 1.65402,-0.56576 1.77416,-0.21313c0.12014,0.35263 -0.74901,0.41953 -1.60872,0.88986z"/></g></g></g></svg>