<svg version="1.1" xmlns="http://www.w3.org/2000/svg" xmlns:xlink="http://www.w3.org/1999/xlink" width="70.08255" height="54.59064" viewBox="0,0,70.08255,54.59064"><defs><linearGradient x1="231.99957" y1="63.87105" x2="302.08212" y2="63.87105" gradientUnits="userSpaceOnUse" id="color-1"><stop offset="0" stop-color="#ff0000"/><stop offset="1" stop-color="#8a0000"/></linearGradient><linearGradient x1="244.45889" y1="70.98308" x2="289.5398" y2="70.98308" gradientUnits="userSpaceOnUse" id="color-2"><stop offset="0" stop-color="#ffffff"/><stop offset="1" stop-color="#d0d0d0"/></linearGradient><linearGradient x1="244.45889" y1="70.98308" x2="289.5398" y2="70.98308" gradientUnits="userSpaceOnUse" id="color-3"><stop offset="0" stop-color="#ffffff"/><stop offset="1" stop-color="#d0d0d0"/></linearGradient><linearGradient x1="267.67117" y1="61.91652" x2="288.6713" y2="61.91652" gradientUnits="userSpaceOnUse" id="color-4"><stop offset="0" stop-color="#d0d0d0" stop-opacity="0"/><stop offset="1" stop-color="#d0d0d0"/></linearGradient><linearGradient x1="267.67117" y1="61.91652" x2="288.6713" y2="61.91652" gradientUnits="userSpaceOnUse" id="color-5"><stop offset="0" stop-color="#636363"/><stop offset="1" stop-color="#b2b2b2"/></linearGradient><linearGradient x1="248.21733" y1="79.15661" x2="264.2522" y2="79.15661" gradientUnits="userSpaceOnUse" id="color-6"><stop offset="0" stop-color="#b2b2b2"/><stop offset="1" stop-color="#636363"/></linearGradient></defs><g transform="translate(-231.99957,-36.6386)"><g data-paper-data="{&quot;isPaintingLayer&quot;:true}" fill-rule="nonzero" stroke-linejoin="miter" stroke-miterlimit="10" stroke-dasharray="" stroke-dashoffset="0" style="mix-blend-mode: normal"><path d="M238.65153,72.1873v-13.96554h17.77432v13.96554z" fill="#d10000" stroke="none" stroke-width="0" stroke-linecap="butt"/><path d="M260.23463,83.61365v-25.39188h36.81823v25.39188z" fill="#00ff46" stroke="none" stroke-width="0" stroke-linecap="butt"/><path d="M232.65577,90.18482c0,0 -0.6562,-0.3523 -0.6562,-2.49357c0,-10.38179 0,-41.2217 0,-46.85295c0,-1.68291 0.91869,-2.8873 0.91869,-2.8873c0,0 0.77276,-1.3124 2.75606,-1.3124c7.09548,0 49.28275,0 62.47059,0c2.48234,0 2.62481,0.6562 2.62481,0.6562c0,0 1.3124,1.08799 1.3124,3.01854c0,5.90323 0,36.45523 0,47.11542c0,2.30059 -0.6562,2.8873 -0.6562,2.8873c0,0 -0.76804,0.78744 -2.49357,0.78744c-6.49891,0 -48.3708,-0.13124 -62.99556,-0.13124c-3.27515,0 -3.28102,-0.78744 -3.28102,-0.78744z" fill="url(#color-1)" stroke="none" stroke-width="0" stroke-linecap="butt"/><path d="M244.11469,89.22411c0,0 0.3442,-24.37598 0.3442,-30.54858c0,-2.69901 1.1428,-4.10143 1.1428,-4.10143c0,0 1.09197,-1.71733 4.50417,-1.71733c9.23166,0 27.08165,0 32.61088,0c3.19812,0 5.36097,2.01403 5.36097,2.01403c0,0 1.46208,1.95609 1.46208,5.14698c0,6.43143 0,29.0916 0,29.0916z" fill="url(#color-2)" stroke="url(#color-3)" stroke-width="4" stroke-linecap="butt"/><path d="M288.6713,61.91652c0,5.70129 -4.70104,10.3231 -10.50006,10.3231c-5.79903,0 -10.50006,-4.62181 -10.50006,-10.3231c0,-5.70129 4.70104,-10.3231 10.50006,-10.3231c5.79903,0 10.50006,4.62181 10.50006,10.3231z" fill="url(#color-4)" stroke="url(#color-5)" stroke-width="4" stroke-linecap="butt"/><path d="M276.30454,72.13481l-2.09606,12.15715" fill="none" stroke="url(#color-6)" stroke-width="4" stroke-linecap="round"/><text transform="translate(246.33529,71.7862) scale(0.5,0.5)" font-size="40" xml:space="preserve" fill="#000000" fill-rule="nonzero" stroke="none" stroke-width="1" stroke-linecap="butt" stroke-linejoin="miter" stroke-miterlimit="10" stroke-dasharray="" stroke-dashoffset="0" font-family="Serif" font-weight="normal" text-anchor="start" style="mix-blend-mode: normal"><tspan x="0" dy="0">A</tspan></text></g></g></svg>