<svg version="1.1" xmlns="http://www.w3.org/2000/svg" xmlns:xlink="http://www.w3.org/1999/xlink" width="53.99777" height="55.08037" viewBox="0,0,53.99777,55.08037"><defs><linearGradient x1="267.75349" y1="39.2998" x2="267.75349" y2="88.70801" gradientUnits="userSpaceOnUse" id="color-1"><stop offset="0" stop-color="#008deb"/><stop offset="1" stop-color="#00b8eb"/></linearGradient><linearGradient x1="258.47643" y1="41.78968" x2="258.47643" y2="86.21809" gradientUnits="userSpaceOnUse" id="color-2"><stop offset="0" stop-color="#008deb"/><stop offset="1" stop-color="#00b8eb"/></linearGradient><linearGradient x1="268.48459" y1="40.21502" x2="268.48459" y2="88.01773" gradientUnits="userSpaceOnUse" id="color-3"><stop offset="0" stop-color="#008deb"/><stop offset="1" stop-color="#00b8eb"/></linearGradient><linearGradient x1="278.4364" y1="41.78968" x2="278.4364" y2="86.21809" gradientUnits="userSpaceOnUse" id="color-4"><stop offset="0" stop-color="#008deb"/><stop offset="1" stop-color="#00b8eb"/></linearGradient><linearGradient x1="250.15317" y1="47.30107" x2="250.15317" y2="81.26909" gradientUnits="userSpaceOnUse" id="color-5"><stop offset="0" stop-color="#008deb"/><stop offset="1" stop-color="#00b8eb"/></linearGradient><linearGradient x1="286.81595" y1="47.41356" x2="286.81595" y2="79.91938" gradientUnits="userSpaceOnUse" id="color-6"><stop offset="0" stop-color="#008deb"/><stop offset="1" stop-color="#00b8eb"/></linearGradient><linearGradient x1="267.92219" y1="73.02578" x2="267.92219" y2="75.22319" gradientUnits="userSpaceOnUse" id="color-7"><stop offset="0" stop-color="#008deb"/><stop offset="1" stop-color="#00b8eb"/></linearGradient><linearGradient x1="268.48454" y1="63.01767" x2="268.48454" y2="65.21507" gradientUnits="userSpaceOnUse" id="color-8"><stop offset="0" stop-color="#008deb"/><stop offset="1" stop-color="#00b8eb"/></linearGradient><linearGradient x1="268.3721" y1="53.06581" x2="268.3721" y2="55.26322" gradientUnits="userSpaceOnUse" id="color-9"><stop offset="0" stop-color="#008deb"/><stop offset="1" stop-color="#00b8eb"/></linearGradient><linearGradient x1="267.80972" y1="81.51779" x2="267.80972" y2="83.7152" gradientUnits="userSpaceOnUse" id="color-10"><stop offset="0" stop-color="#008deb"/><stop offset="1" stop-color="#00b8eb"/></linearGradient><linearGradient x1="267.58475" y1="44.51753" x2="267.58475" y2="46.71493" gradientUnits="userSpaceOnUse" id="color-11"><stop offset="0" stop-color="#008deb"/><stop offset="1" stop-color="#00b8eb"/></linearGradient><linearGradient x1="255.03932" y1="51.82251" x2="277.93671" y2="74.71991" gradientUnits="userSpaceOnUse" id="color-12"><stop offset="0" stop-color="#ebdc00"/><stop offset="1" stop-color="#ebcf00"/></linearGradient><radialGradient cx="290.6595" cy="40.01531" r="3.38767" gradientUnits="userSpaceOnUse" id="color-13"><stop offset="0" stop-color="#ffffff"/><stop offset="1" stop-color="#faff00"/></radialGradient><linearGradient x1="287.27182" y1="40.01531" x2="294.04717" y2="40.01531" gradientUnits="userSpaceOnUse" id="color-14"><stop offset="0" stop-color="#ebe26a"/><stop offset="1" stop-color="#ebdc6d"/></linearGradient></defs><g transform="translate(-241.54939,-35.12764)"><g data-paper-data="{&quot;isPaintingLayer&quot;:true}" fill-rule="nonzero" stroke-width="3" stroke-linejoin="miter" stroke-miterlimit="10" stroke-dasharray="" stroke-dashoffset="0" style="mix-blend-mode: normal"><g><g fill="none"><path d="M243.04939,64.0039c0,-13.64368 11.06042,-24.70409 24.7041,-24.70409c13.64369,0 24.70409,11.06041 24.70409,24.70409c0,13.64368 -11.06041,24.70411 -24.70409,24.70411c-13.64368,0 -24.7041,-11.06042 -24.7041,-24.70411z" stroke="url(#color-1)" stroke-linecap="butt"/><g stroke-linecap="round"><path d="M257.91406,41.78968c0,0 1.12476,14.55548 1.12476,21.78822c0,7.56204 -1.12476,22.64019 -1.12476,22.64019" stroke="url(#color-2)"/><path d="M267.75349,40.21502c0,0 1.4622,15.48838 1.4622,23.13792c0,8.24063 -1.4622,24.66479 -1.4622,24.66479" stroke="url(#color-3)"/><path d="M277.59283,41.78968c0,0 1.68714,13.82457 1.68714,20.88839c0,7.69206 -1.68714,23.54002 -1.68714,23.54002" stroke="url(#color-4)"/><path d="M249.70326,47.30107c0,0 0.67487,10.79148 0.67487,16.50177c0,6.07691 0.22496,17.46625 0.22496,17.46625" stroke="url(#color-5)"/><path d="M285.91613,47.41356c0,0 1.79964,9.95575 1.79964,15.60195c0,6.12486 -1.4622,16.90387 -1.4622,16.90387" data-paper-data="{&quot;index&quot;:null}" stroke="url(#color-6)"/></g><g stroke-linecap="round"><path d="M246.1579,74.68686c0,0 14.55546,-1.12477 21.7882,-1.12477c7.56204,0 21.74037,1.01229 21.74037,1.01229" stroke="url(#color-7)"/><path d="M244.5832,64.84748c0,0 15.48838,-1.46222 23.13793,-1.46222c8.24063,0 24.66478,1.46222 24.66478,1.46222" stroke="url(#color-8)"/><path d="M246.1579,55.00808c0,0 13.82455,-1.68714 20.88838,-1.68714c7.69206,0 23.54002,1.68714 23.54002,1.68714" stroke="url(#color-9)"/><path d="M252.45661,83.01016c0,0 10.00411,-0.78733 15.71444,-0.78733c6.07691,0 14.99178,0.56238 14.99178,0.56238" stroke="url(#color-10)"/><path d="M250.65696,46.34733c0,0 11.08053,-1.46221 16.72676,-1.46221c6.12486,0 17.12883,1.01228 17.12883,1.01228" data-paper-data="{&quot;index&quot;:null}" stroke="url(#color-11)"/></g></g><path d="M247.43093,85.99064c-6.32294,-6.32294 -2.0177,-19.41476 12.55256,-33.98501c14.57026,-14.57026 23.63349,-17.04432 29.95643,-10.72139c6.32294,6.32294 -0.54595,15.56929 -15.1162,30.13955c-14.57026,14.57026 -21.06984,20.88979 -27.39279,14.56685z" fill="none" stroke="url(#color-12)" stroke-linecap="butt"/><path d="M287.27182,40.01531c0,-1.87096 1.51671,-3.38767 3.38767,-3.38767c1.87096,0 3.38767,1.51671 3.38767,3.38767c0,1.87096 -1.51671,3.38767 -3.38767,3.38767c-1.87096,0 -3.38767,-1.51671 -3.38767,-3.38767z" fill="url(#color-13)" stroke="url(#color-14)" stroke-linecap="butt"/></g></g></g></svg>