<svg version="1.1" xmlns="http://www.w3.org/2000/svg" xmlns:xlink="http://www.w3.org/1999/xlink" width="70.08255" height="54.4649" viewBox="0,0,70.08255,54.4649"><defs><linearGradient x1="231.99959" y1="63.87105" x2="302.08214" y2="63.87105" gradientUnits="userSpaceOnUse" id="color-1"><stop offset="0" stop-color="#682e10"/><stop offset="1" stop-color="#4e240a"/></linearGradient><linearGradient x1="267.04086" y1="43.06448" x2="267.04086" y2="84.67762" gradientUnits="userSpaceOnUse" id="color-2"><stop offset="0" stop-color="#eda68a"/><stop offset="1" stop-color="#d97232"/></linearGradient><linearGradient x1="267.04086" y1="59.04963" x2="253.71078" y2="68.69247" gradientUnits="userSpaceOnUse" id="color-3"><stop offset="0" stop-color="#ffffff"/><stop offset="1" stop-color="#dadada"/></linearGradient><linearGradient x1="263.77349" y1="59.04963" x2="256.97814" y2="68.69247" gradientUnits="userSpaceOnUse" id="color-4"><stop offset="0" stop-color="#d6d6d6"/><stop offset="1" stop-color="#ada9a9"/></linearGradient></defs><g transform="translate(-231.99958,-36.6386)"><g data-paper-data="{&quot;isPaintingLayer&quot;:true}" fill-rule="nonzero" stroke="none" stroke-width="0" stroke-linecap="butt" stroke-linejoin="miter" stroke-miterlimit="10" stroke-dasharray="" stroke-dashoffset="0" style="mix-blend-mode: normal"><path d="M232.65578,90.18482c0,0 -0.6562,-0.3523 -0.6562,-2.49357c0,-10.38179 0,-41.2217 0,-46.85295c0,-1.68291 0.91869,-2.8873 0.91869,-2.8873c0,0 0.77276,-1.3124 2.75606,-1.3124c7.09548,0 49.28275,0 62.47059,0c2.48234,0 2.62481,0.6562 2.62481,0.6562c0,0 1.3124,1.08799 1.3124,3.01854c0,5.90323 0,36.45523 0,47.11542c0,2.30059 -0.6562,2.8873 -0.6562,2.8873c0,0 -0.76804,0.78744 -2.49357,0.78744c-6.49891,0 -48.3708,-0.13124 -62.99556,-0.13124c-3.27515,0 -3.28102,-0.78744 -3.28102,-0.78744z" fill="url(#color-1)"/><g><path d="M246.23429,63.87105c0,-11.49115 9.31542,-20.80657 20.80657,-20.80657c11.49115,0 20.80657,9.31542 20.80657,20.80657c0,11.49115 -9.31542,20.80657 -20.80657,20.80657c-11.49115,0 -20.80657,-9.31542 -20.80657,-20.80657z" fill="url(#color-2)"/><path d="M260.37582,54.22821l13.33008,9.64284l-13.33008,9.64284z" fill="url(#color-3)"/><path d="M260.37582,54.22821l6.79535,9.64284l-6.79535,9.64285z" fill="url(#color-4)"/></g></g></g></svg>