<svg version="1.1" xmlns="http://www.w3.org/2000/svg" xmlns:xlink="http://www.w3.org/1999/xlink" width="32" height="32" viewBox="0,0,32,32"><defs><linearGradient x1="224" y1="180" x2="256" y2="180" gradientUnits="userSpaceOnUse" id="color-1"><stop offset="0" stop-color="#4a2525"/><stop offset="1" stop-color="#4a2d4b"/></linearGradient><linearGradient x1="240.00001" y1="170.72967" x2="240.00001" y2="193.64808" gradientUnits="userSpaceOnUse" id="color-2"><stop offset="0" stop-color="#222222"/><stop offset="1" stop-color="#191919"/></linearGradient><linearGradient x1="240.00001" y1="178.48667" x2="240.00001" y2="185.89109" gradientUnits="userSpaceOnUse" id="color-3"><stop offset="0" stop-color="#e4399b"/><stop offset="1" stop-color="#e33939"/></linearGradient><linearGradient x1="242.48594" y1="171.67076" x2="242.48594" y2="173.82548" gradientUnits="userSpaceOnUse" id="color-4"><stop offset="0" stop-color="#ed92f2"/><stop offset="1" stop-color="#ee90ee"/></linearGradient><linearGradient x1="238.53866" y1="169.36856" x2="238.53866" y2="186.85257" gradientUnits="userSpaceOnUse" id="color-5"><stop offset="0" stop-color="#eb99ff"/><stop offset="1" stop-color="#ff5a8a"/></linearGradient><linearGradient x1="243.37142" y1="175.40176" x2="243.37142" y2="187.34508" gradientUnits="userSpaceOnUse" id="color-6"><stop offset="0" stop-color="#ed94f5"/><stop offset="1" stop-color="#ff5a8a"/></linearGradient><linearGradient x1="242.03783" y1="175.44095" x2="242.03783" y2="187.38427" gradientUnits="userSpaceOnUse" id="color-7"><stop offset="0" stop-color="#ed94f5"/><stop offset="1" stop-color="#ff5a8a"/></linearGradient></defs><g transform="translate(-224,-164)"><g data-paper-data="{&quot;isPaintingLayer&quot;:true}" fill-rule="nonzero" stroke-linejoin="miter" stroke-miterlimit="10" stroke-dasharray="" stroke-dashoffset="0" style="mix-blend-mode: normal"><path d="M224,196v-32h32v32z" fill="url(#color-1)" stroke="none" stroke-width="0" stroke-linecap="butt"/><g><g stroke="none" stroke-width="0" stroke-linecap="butt"><path d="M228.5408,182.18887c0,-6.32874 5.13047,-11.4592 11.4592,-11.4592c6.32874,0 11.4592,5.13047 11.4592,11.4592c0,6.32874 -5.13045,11.4592 -11.4592,11.4592c-6.32874,0 -11.4592,-5.13045 -11.4592,-11.4592z" fill="url(#color-2)"/><path d="M236.29782,182.18887c0,-2.04468 1.65753,-3.7022 3.7022,-3.7022c2.04468,0 3.7022,1.65753 3.7022,3.7022c0,2.04468 -1.65753,3.70222 -3.7022,3.70222c-2.04468,0 -3.7022,-1.65753 -3.7022,-3.7022z" fill="url(#color-3)"/><path d="M239.5103,182.18887c0,-0.27046 0.21925,-0.48971 0.48971,-0.48971c0.27046,0 0.48971,0.21925 0.48971,0.48971c0,0.27046 -0.21925,0.48971 -0.48971,0.48971c-0.27046,0 -0.48971,-0.21925 -0.48971,-0.48971z" fill="#000000"/></g><path d="M246.10977,172.55224c-0.95489,-0.94101 -1.28797,2.70589 -3.46321,2.67969c-2.17491,-0.0262 -2.25111,-3.83497 -3.35354,-2.67969" fill="none" stroke="url(#color-4)" stroke-width="1.9" stroke-linecap="round"/><path d="M232.01293,187.34508c0,0 2.13289,-3.983 2.15426,-7.5723c0.00705,-1.18284 0.02546,-2.54108 0.06203,-3.57068c0.11915,-3.3569 1.59891,-6.09096 3.85591,-7.45317" fill="none" stroke="url(#color-5)" stroke-width="1.9" stroke-linecap="round"/><path d="M239.80073,167.49086c0,-0.62901 0.50993,-1.13893 1.13893,-1.13893c0.62901,0 1.13893,0.50993 1.13893,1.13893c0,0.62901 -0.50991,1.13893 -1.13892,1.13893c-0.62901,0 -1.13893,-0.50991 -1.13893,-1.13892z" fill="#eb99ff" stroke="none" stroke-width="0.5" stroke-linecap="butt"/><path d="M237.9846,187.34508v-11.01986c0,0 -0.09895,-2.42421 1.44924,-3.87107" fill="none" stroke="url(#color-6)" stroke-width="1.9" stroke-linecap="round"/><path d="M245.9754,172.49332c1.54819,1.44686 1.44923,3.87108 1.44923,3.87108v11.01986" fill="none" stroke="url(#color-7)" stroke-width="1.9" stroke-linecap="round"/></g></g></g></svg>