<svg version="1.1" xmlns="http://www.w3.org/2000/svg" xmlns:xlink="http://www.w3.org/1999/xlink" width="70.08255" height="54.4649" viewBox="0,0,70.08255,54.4649"><defs><linearGradient x1="231.99961" y1="63.87105" x2="302.08216" y2="63.87105" gradientUnits="userSpaceOnUse" id="color-1"><stop offset="0" stop-color="#ffffff"/><stop offset="1" stop-color="#dadada"/></linearGradient></defs><g transform="translate(-231.99959,-36.6386)"><g data-paper-data="{&quot;isPaintingLayer&quot;:true}" fill-rule="nonzero" stroke="none" stroke-linecap="butt" stroke-linejoin="miter" stroke-miterlimit="10" stroke-dasharray="" stroke-dashoffset="0" style="mix-blend-mode: normal"><path d="M232.6558,90.18482c0,0 -0.6562,-0.3523 -0.6562,-2.49357c0,-10.38179 0,-41.2217 0,-46.85295c0,-1.68291 0.91869,-2.8873 0.91869,-2.8873c0,0 0.77276,-1.3124 2.75606,-1.3124c7.09548,0 49.28275,0 62.47059,0c2.48234,0 2.62481,0.6562 2.62481,0.6562c0,0 1.3124,1.08799 1.3124,3.01854c0,5.90323 0,36.45523 0,47.11542c0,2.30059 -0.6562,2.8873 -0.6562,2.8873c0,0 -0.76804,0.78744 -2.49357,0.78744c-6.49891,0 -48.3708,-0.13124 -62.99556,-0.13124c-3.27515,0 -3.28102,-0.78744 -3.28102,-0.78744z" fill="url(#color-1)" stroke-width="0"/><g><path d="M250.87815,83.60638v-40.94342h32.24996v40.94342z" fill="#b9b9b9" stroke-width="0"/><path d="M277.51941,44.99774c0.75,0 0.75,0.75 0.75,0.75l-0.00754,0.52672c-0.65474,4.58152 -1.39463,9.42886 -1.39463,14.05587c0,1.38351 -0.46854,3.83295 0.30864,5.07417c1.21093,1.93398 2.0128,3.69173 2.34987,6.05157c0.36982,2.58914 -0.8135,5.44205 -1.95877,7.68125c-2.78854,2.75917 -7.57179,2.67402 -11.17789,2.41284c-1.98635,-0.14387 -3.87074,0.17441 -5.74141,-0.77381c-1.49976,-0.76021 -2.39625,-2.12507 -3.45271,-3.39463c-2.67931,-2.75057 -2.0438,-10.52549 1.26952,-12.77436c2.46733,-1.67467 5.75717,-0.19727 8.17866,-2.17174c3.96931,-3.96931 3.39584,-11.44526 3.39584,-16.82809c0,0 0,-0.75 0.75,-0.75c0.75,0 0.75,0.75 0.75,0.75c0,5.9187 0.46953,13.58079 -3.89546,17.94578c-2.58318,2.03862 -5.87439,0.69593 -8.36697,2.31521c-2.55561,1.66023 -3.0131,8.52927 -0.97396,10.50169c0.68201,0.81729 1.3603,1.91104 2.17144,2.59509c1.33869,1.12893 3.35946,1.08522 4.98668,1.08674c3.2512,0.00304 8.29538,0.85877 10.88938,-1.79179c0.93705,-1.93074 2.00321,-4.40694 1.68687,-6.62091c-0.36623,-2.56312 -1.90941,-4.22794 -2.50741,-6.50106c-0.39497,-1.50134 -0.16233,-3.26693 -0.16233,-4.80796c0,-4.69767 0.74549,-9.61677 1.40971,-14.268l-0.00754,-0.31459c0,0 0,-0.75 0.75,-0.75z" fill="#838383" stroke-width="0.5"/><path d="M252.7166,51.51617v-6.24439h16.29633v6.24439z" fill="#000000" stroke-width="0"/><path d="M262.82793,50.66524c-0.04576,-0.00787 -0.09381,-0.01992 -0.14426,-0.03673c-0.71151,-0.23717 -0.47434,-0.94868 -0.47434,-0.94868l0.1023,-0.29589c0.60867,-1.34874 1.70961,-3.44205 3.49248,-3.3256c1.65915,0.10837 2.81833,3.74418 1.74357,4.7717c-0.57506,0.54978 -3.38246,0.14157 -4.09378,0.14157c0,0 -0.4129,0 -0.62597,-0.30636z" fill="#ffffff" stroke-width="0.5"/><path d="M265.50998,48.56783c-0.25,0 -0.25,-0.25 -0.25,-0.25c0,-0.38076 0,-0.91381 0,-1.29457c0,0 0,-0.25 0.25,-0.25c0.25,0 0.25,0.25 0.25,0.25c0,0.38076 0,0.76151 0,1.14227v0.1523c0,0 0,0.25 -0.25,0.25z" fill="#000000" stroke-width="0.5"/><path d="M265.82971,49.61327c0.04809,0.13716 -0.0668,0.25206 -0.0668,0.25206l-0.53709,0.1142c-0.09026,-0.23258 0.07468,-0.57805 0.29968,-0.68581c0,0 0.24254,-0.06063 0.30317,0.1819c0.01367,0.05466 0.01193,0.10009 0.00104,0.13766z" fill="#000000" stroke-width="0.5"/><path d="M261.76707,46.4902c0,0.75 -0.75,0.75 -0.75,0.75c-2.23376,0 -5.15289,0 -7.38665,0c0,0 -0.75,0 -0.75,-0.75c0,-0.75 0.75,-0.75 0.75,-0.75c2.23376,0 4.46753,0 6.70129,0h0.68536c0,0 0.75,0 0.75,0.75z" fill="#ffffff" stroke-width="0.5"/><path d="M261.06016,48.39398c0,0.5 -0.5,0.5 -0.5,0.5h-0.1523c-2.22488,-0.00488 -4.46785,0.07615 -6.70129,0.07615c0,0 -0.5,0 -0.5,-0.5c0,-0.5 0.5,-0.5 0.5,-0.5c2.23449,0 4.47505,-0.07181 6.70129,-0.07615h0.1523c0,0 0.5,0 0.5,0.5z" fill="#ffffff" stroke-width="0.5"/><path d="M260.0271,50.5693c-0.1237,0 -0.21679,-0.0306 -0.28686,-0.07667c-1.88591,-0.00665 -3.75469,-0.07564 -5.65293,-0.07564c0,0 -0.5,0 -0.5,-0.5c0,-0.5 0.5,-0.5 0.5,-0.5c1.99366,0 3.95688,0.07615 5.93978,0.07615l0.5,0.57615c0,0 0,0.5 -0.5,0.5z" fill="#ffffff" stroke-width="0.5"/></g></g></g></svg>