<svg version="1.1" xmlns="http://www.w3.org/2000/svg" xmlns:xlink="http://www.w3.org/1999/xlink" width="46.19826" height="42.34843" viewBox="0,0,46.19826,42.34843"><defs><linearGradient x1="216.90087" y1="179.99998" x2="263.09914" y2="179.99998" gradientUnits="userSpaceOnUse" id="color-1"><stop offset="0" stop-color="#472200"/><stop offset="1" stop-color="#6d5015"/></linearGradient><linearGradient x1="224.59444" y1="179.26667" x2="255.03892" y2="179.26667" gradientUnits="userSpaceOnUse" id="color-2"><stop offset="0" stop-color="#272727"/><stop offset="1" stop-color="#3c3c3c"/></linearGradient><linearGradient x1="235.82371" y1="179.26667" x2="243.80964" y2="179.26667" gradientUnits="userSpaceOnUse" id="color-3"><stop offset="0" stop-color="#660000"/><stop offset="1" stop-color="#d90000"/></linearGradient><linearGradient x1="238.09073" y1="179.26667" x2="241.54262" y2="179.26667" gradientUnits="userSpaceOnUse" id="color-4"><stop offset="0" stop-color="#dadada"/><stop offset="1" stop-color="#b6b6b6"/></linearGradient></defs><g transform="translate(-216.90087,-158.82578)"><g data-paper-data="{&quot;isPaintingLayer&quot;:true}" fill-rule="nonzero" stroke="none" stroke-width="0" stroke-linecap="butt" stroke-linejoin="miter" stroke-miterlimit="10" stroke-dasharray="" stroke-dashoffset="0" style="mix-blend-mode: normal"><path d="M218.18415,199.8909c0,0 -1.28329,-0.6997 -1.28329,-3.76329c0,-8.8786 0,-26.83322 0,-31.8988c0,-2.6056 1.46661,-3.7531 1.46661,-3.7531c0,0 1.56865,-1.64993 4.39983,-1.64993c5.59181,0 25.64393,0 35.19868,0c3.12971,0 4.03318,1.46662 4.03318,1.46662c0,0 1.09995,1.08611 1.09995,4.87343c0,9.22169 0,25.76285 0,30.59515c0,2.60973 -1.09995,4.12995 -1.09995,4.12995c0,0 -0.90218,1.28329 -4.03318,1.28329c-9.65817,0 -30.05774,0 -35.56534,0c-2.68098,0 -4.21651,-1.28329 -4.21651,-1.28329z" fill="url(#color-1)"/><path d="M255.03892,179.26667c0,8.50533 -6.81523,15.40027 -15.22224,15.40027c-8.40701,0 -15.22224,-6.89494 -15.22224,-15.40027c0,-8.50533 6.81523,-15.40027 15.22224,-15.40027c8.40701,0 15.22224,6.89494 15.22224,15.40027z" fill="url(#color-2)"/><path d="M243.80964,179.26667c0,2.23104 -1.78771,4.03967 -3.99297,4.03967c-2.20526,0 -3.99297,-1.80863 -3.99297,-4.03967c0,-2.23104 1.78771,-4.03967 3.99297,-4.03967c2.20526,0 3.99297,1.80863 3.99297,4.03967z" fill="url(#color-3)"/><path d="M241.54262,179.26667c0,0.96437 -0.77273,1.74613 -1.72594,1.74613c-0.95321,0 -1.72594,-0.78177 -1.72594,-1.74613c0,-0.96437 0.77273,-1.74613 1.72594,-1.74613c0.95321,0 1.72594,0.78176 1.72594,1.74613z" fill="url(#color-4)"/><path d="M245.49179,175.17096l-0.92583,-1.35567l11.36181,-7.75928l0.92583,1.35567z" fill="#4f4f4f"/><path d="M260.9505,165.72764c0,2.02918 -1.60997,3.67415 -3.59598,3.67415c-1.986,0 -3.59599,-1.64498 -3.59599,-3.67415c0,-2.02918 1.60998,-3.67415 3.59599,-3.67415c1.986,0 3.59598,1.64498 3.59598,3.67415z" fill="#4f4f4f"/></g></g></svg>