<svg version="1.1" xmlns="http://www.w3.org/2000/svg" xmlns:xlink="http://www.w3.org/1999/xlink" width="36" height="33.00001" viewBox="0,0,36,33.00001"><defs><linearGradient x1="222.14286" y1="180.57143" x2="258.14286" y2="180.57143" gradientUnits="userSpaceOnUse" id="color-1"><stop offset="0" stop-color="#00a3ff"/><stop offset="1" stop-color="#00099e"/></linearGradient></defs><g transform="translate(-222.14286,-164.07144)"><g data-paper-data="{&quot;isPaintingLayer&quot;:true}" fill-rule="nonzero" stroke="none" stroke-width="0" stroke-linecap="butt" stroke-linejoin="miter" stroke-miterlimit="10" stroke-dasharray="" stroke-dashoffset="0" style="mix-blend-mode: normal"><path d="M223.14286,196.07143c0,0 -1,-0.54524 -1,-2.93254c0,-6.91865 0,-20.90979 0,-24.85714c0,-2.03041 1.14286,-2.9246 1.14286,-2.9246c0,0 1.22237,-1.28571 3.42857,-1.28571c4.35742,0 19.98303,0 27.42857,0c2.43883,0 3.14286,1.14286 3.14286,1.14286c0,0 0.85714,0.84635 0.85714,3.79762c0,7.186 0,20.0757 0,23.84127c0,2.03363 -0.85714,3.21826 -0.85714,3.21826c0,0 -0.70303,1 -3.14286,1c-7.52613,0 -23.42249,0 -27.71429,0c-2.08915,0 -3.28571,-1 -3.28571,-1z" fill="url(#color-1)"/><g><path d="M225.97529,186.812l3.58106,-18.28069l24.4242,4.78453l-3.58106,18.28069z" fill="#d9d9d9"/><path d="M240.27004,178.27315l-10.66953,-9.86967l24.4242,4.78453z" fill="#ffffff"/></g></g></g></svg>