<svg version="1.1" xmlns="http://www.w3.org/2000/svg" xmlns:xlink="http://www.w3.org/1999/xlink" width="69.56491" height="60.15411" viewBox="0,0,69.56491,60.15411"><g transform="translate(15.87179,-127.93547)"><g data-paper-data="{&quot;isPaintingLayer&quot;:true}" fill-rule="nonzero" stroke-linejoin="miter" stroke-miterlimit="10" stroke-dasharray="" stroke-dashoffset="0" style="mix-blend-mode: normal"><g><path d="M3.58156,187.46459v-56.07789h34.15971v56.07789z" fill="#bebebe" stroke="#555555" stroke-width="1.25" stroke-linecap="butt"/><path d="M-14.83905,180.81917c0,0 9.49843,-18.14081 12.69136,-26.79858c2.82418,-7.65783 5.49606,-22.51734 5.49606,-22.51734h34.15971c0,0 -3.88378,19.12251 -6.98483,27.53111c-2.95433,8.01074 -11.20261,21.78481 -11.20261,21.78481z" fill="#ffffff" stroke="#808080" stroke-width="1.25" stroke-linecap="butt"/><path d="M9.37819,134.9643c0,0 -1.34176,-0.22188 -2.47019,-1.04603c-1.1908,-0.86973 -1.16137,-2.57665 -1.16137,-2.57665c0,0 0.44315,-2.8893 3.52952,-2.90615c3.19425,-0.01742 3.77448,3.1114 3.77448,3.1114" fill="none" stroke="#cccccc" stroke-width="1" stroke-linecap="round"/><path d="M18.64291,135.08867c0,0 -1.34176,-0.22188 -2.47019,-1.04603c-1.1908,-0.86973 -1.16137,-2.57667 -1.16137,-2.57667c0,0 0.44315,-2.8893 3.52952,-2.90612c3.19425,-0.01742 3.77448,3.1114 3.77448,3.1114" fill="none" stroke="#cccccc" stroke-width="1" stroke-linecap="round"/><path d="M28.71594,135.0265c0,0 -1.34176,-0.22188 -2.47019,-1.04603c-1.1908,-0.86973 -1.16137,-2.57667 -1.16137,-2.57667c0,0 0.44315,-2.8893 3.52952,-2.90612c3.19425,-0.01742 3.77448,3.1114 3.77448,3.1114" fill="none" stroke="#cccccc" stroke-width="1" stroke-linecap="round"/><g stroke="none" stroke-width="0" stroke-linecap="butt"><path d="M51.77801,138.83108l-24.88046,41.9106l-2.7747,-1.64722l24.88046,-41.9106z" fill="#ffdf7f"/><path d="M53.69312,139.968l-24.88046,41.9106l-1.95585,-1.16111l24.88046,-41.9106z" fill="#e4c25a"/><path d="M28.85686,181.80415l-5.87335,4.46673l1.18353,-7.25087z" fill="#fff7df"/><path d="M25.75013,184.18826l-2.79542,2.12594l0.56329,-3.45105z" fill="#292929"/></g></g></g></g></svg>