<svg version="1.1" xmlns="http://www.w3.org/2000/svg" xmlns:xlink="http://www.w3.org/1999/xlink" width="71.5967" height="54.4649" viewBox="0,0,71.5967,54.4649"><defs><linearGradient x1="261.31753" y1="36.6386" x2="261.31753" y2="91.1035" gradientUnits="userSpaceOnUse" id="color-1"><stop offset="0" stop-color="#ff0dbb"/><stop offset="1" stop-color="#d90000"/></linearGradient></defs><g transform="translate(-226.27625,-36.6386)"><g data-paper-data="{&quot;isPaintingLayer&quot;:true}" fill-rule="nonzero" stroke-linejoin="miter" stroke-miterlimit="10" stroke-dasharray="" stroke-dashoffset="0" style="mix-blend-mode: normal"><path d="M226.93245,90.18482c0,0 -0.6562,-0.3523 -0.6562,-2.49357c0,-10.38179 0,-41.2217 0,-46.85295c0,-1.68291 0.91869,-2.8873 0.91869,-2.8873c0,0 0.77276,-1.3124 2.75606,-1.3124c7.09548,0 49.28275,0 62.47059,0c2.48234,0 2.62481,0.6562 2.62481,0.6562c0,0 1.3124,1.08799 1.3124,3.01854c0,5.90323 0,36.45523 0,47.11542c0,2.30059 -0.6562,2.8873 -0.6562,2.8873c0,0 -0.76804,0.78744 -2.49357,0.78744c-6.49891,0 -48.3708,-0.13124 -62.99556,-0.13124c-3.27515,0 -3.28102,-0.78744 -3.28102,-0.78744z" fill="url(#color-1)" stroke="none" stroke-width="0" stroke-linecap="butt"/><path d="M238.51387,66.17723c0,-8.82297 7.15243,-15.9754 15.9754,-15.9754c8.82297,0 15.9754,7.15243 15.9754,15.9754c0,8.82297 -7.15243,15.9754 -15.9754,15.9754c-8.82297,0 -15.9754,-7.15243 -15.9754,-15.9754z" fill="#c6ff00" stroke="#000000" stroke-width="2" stroke-linecap="butt"/><path d="M250.91831,66.74106l0.75178,-9.0214" fill="none" stroke="#000000" stroke-width="2" stroke-linecap="round"/><path d="M258.06025,67.11696l0.75178,-10.52497" fill="none" stroke="#000000" stroke-width="2" stroke-linecap="round"/><path d="M260.29294,70.87588l-3.38303,3.00713l-6.76605,1.12768l-3.75892,-3.38303" fill="none" stroke="#000000" stroke-width="2" stroke-linecap="round"/><path d="M274.9511,71.60684c0,-4.63602 3.75823,-8.39425 8.39425,-8.39425c4.63602,0 8.39425,3.75823 8.39425,8.39425c0,4.63602 -3.75823,8.39425 -8.39425,8.39425c-4.63602,0 -8.39425,-3.75823 -8.39425,-8.39425z" fill="#ff0000" stroke="#000000" stroke-width="2" stroke-linecap="butt"/><path d="M276.85889,58.25235l4.96024,5.72335" fill="none" stroke="#000000" stroke-width="2" stroke-linecap="round"/><path d="M285.25314,63.21259l-1.14467,-6.10491" fill="none" stroke="#000000" stroke-width="2" stroke-linecap="round"/><path d="M287.54248,63.9757l4.19713,-5.72335" fill="none" stroke="#000000" stroke-width="2" stroke-linecap="round"/><path d="M293.64738,68.55439l-3.05245,-2.6709l2.6709,-1.52623" fill="none" stroke="#000000" stroke-width="2" stroke-linecap="round"/><path d="M289.45026,76.18552l1.52623,2.6709l-7.63114,-8.01269l0.38156,-3.43401" fill="none" stroke="#6f00ff" stroke-width="2" stroke-linecap="round"/><path d="M286.77937,82.29043l1.14467,-3.81557" fill="none" stroke="#000000" stroke-width="2" stroke-linecap="round"/><path d="M281.81913,83.81666l1.90778,-5.3418" fill="none" stroke="#000000" stroke-width="2" stroke-linecap="round"/><path d="M279.91134,79.23797l-11.44671,4.19713" fill="none" stroke="#000000" stroke-width="2" stroke-linecap="round"/><path d="M277.24044,74.27773l-7.63114,3.81557" fill="none" stroke="#000000" stroke-width="2" stroke-linecap="round"/><path d="M276.09577,68.55438l-1.90778,-7.24958" fill="none" stroke="#000000" stroke-width="2" stroke-linecap="round"/><path d="M281.05601,66.6466l-1.52623,2.6709" fill="none" stroke="#000000" stroke-width="2" stroke-linecap="round"/><path d="M281.05601,76.94863l1.52623,-2.28934l2.6709,-0.38156" fill="none" stroke="#000000" stroke-width="2" stroke-linecap="round"/><path d="M284.49002,82.29043l-12.20982,-22.51185l22.51185,15.26227l-2.6709,-4.57868" fill="none" stroke="#6f00ff" stroke-width="2" stroke-linecap="round"/><path d="M295.17362,60.54169l-12.20982,12.97293" fill="none" stroke="#ff0000" stroke-width="2" stroke-linecap="round"/></g></g></svg>