<svg version="1.1" xmlns="http://www.w3.org/2000/svg" xmlns:xlink="http://www.w3.org/1999/xlink" width="70.08255" height="54.4649" viewBox="0,0,70.08255,54.4649"><defs><linearGradient x1="267.04086" y1="36.6386" x2="267.04086" y2="91.1035" gradientUnits="userSpaceOnUse" id="color-1"><stop offset="0" stop-color="#004eff"/><stop offset="1" stop-color="#00c5ff" stop-opacity="0.54335"/></linearGradient><linearGradient x1="251.85787" y1="75.76998" x2="251.85787" y2="84.81998" gradientUnits="userSpaceOnUse" id="color-2"><stop offset="0" stop-color="#f8dc8b"/><stop offset="1" stop-color="#fcc288"/></linearGradient><linearGradient x1="244.9627" y1="59.54621" x2="244.9627" y2="69.24153" gradientUnits="userSpaceOnUse" id="color-3"><stop offset="0" stop-color="#2f2e2d"/><stop offset="1" stop-color="#111110"/></linearGradient><linearGradient x1="268.14033" y1="40.79974" x2="268.14033" y2="87.155" gradientUnits="userSpaceOnUse" id="color-4"><stop offset="0" stop-color="#ffd866"/><stop offset="1" stop-color="#ffb366"/></linearGradient><linearGradient x1="289.11902" y1="60.01287" x2="289.11902" y2="69.7082" gradientUnits="userSpaceOnUse" id="color-5"><stop offset="0" stop-color="#2f2e2d"/><stop offset="1" stop-color="#111110"/></linearGradient><linearGradient x1="267.23448" y1="40.57814" x2="267.23448" y2="61.20249" gradientUnits="userSpaceOnUse" id="color-6"><stop offset="0" stop-color="#413f3e"/><stop offset="1" stop-color="#282727"/></linearGradient><linearGradient x1="268.00309" y1="40.57814" x2="268.00309" y2="61.20249" gradientUnits="userSpaceOnUse" id="color-7"><stop offset="0" stop-color="#413f3e"/><stop offset="1" stop-color="#262524"/></linearGradient><linearGradient x1="273.02393" y1="56.43352" x2="273.02393" y2="62.67024" gradientUnits="userSpaceOnUse" id="color-8"><stop offset="0" stop-color="#3a3935"/><stop offset="1" stop-color="#181717"/></linearGradient><linearGradient x1="262.21362" y1="56.00386" x2="262.21362" y2="62.24058" gradientUnits="userSpaceOnUse" id="color-9"><stop offset="0" stop-color="#3a3935"/><stop offset="1" stop-color="#181717"/></linearGradient><linearGradient x1="267.90392" y1="68.81966" x2="267.90392" y2="64.69003" gradientUnits="userSpaceOnUse" id="color-10"><stop offset="0" stop-color="#413f3e"/><stop offset="1" stop-color="#282727"/></linearGradient><linearGradient x1="268.05782" y1="68.81966" x2="268.05782" y2="64.69003" gradientUnits="userSpaceOnUse" id="color-11"><stop offset="0" stop-color="#413f3e"/><stop offset="1" stop-color="#262524"/></linearGradient><linearGradient x1="263.08423" y1="63.92156" x2="263.08423" y2="74.2549" gradientUnits="userSpaceOnUse" id="color-12"><stop offset="0" stop-color="#dbcbcb"/><stop offset="1" stop-color="#e1caca"/></linearGradient><linearGradient x1="263.08423" y1="63.92156" x2="263.08423" y2="74.2549" gradientUnits="userSpaceOnUse" id="color-13"><stop offset="0" stop-color="#000000" stop-opacity="0"/><stop offset="1" stop-color="#000000" stop-opacity="0"/></linearGradient><linearGradient x1="263.08423" y1="67.96323" x2="263.08423" y2="70.21323" gradientUnits="userSpaceOnUse" id="color-14"><stop offset="0" stop-color="#9d9191"/><stop offset="1" stop-color="#675e5e"/></linearGradient><linearGradient x1="267.85789" y1="69.7299" x2="267.85789" y2="78.7799" gradientUnits="userSpaceOnUse" id="color-15"><stop offset="0" stop-color="#f8dc8b"/><stop offset="1" stop-color="#fcc288"/></linearGradient></defs><g transform="translate(-231.99958,-36.6386)"><g data-paper-data="{&quot;isPaintingLayer&quot;:true}" fill-rule="nonzero" stroke-linejoin="miter" stroke-miterlimit="10" stroke-dasharray="" stroke-dashoffset="0" style="mix-blend-mode: normal"><path d="M232.65578,90.18482c0,0 -0.6562,-0.3523 -0.6562,-2.49357c0,-10.38179 0,-41.2217 0,-46.85295c0,-1.68291 0.91869,-2.8873 0.91869,-2.8873c0,0 0.77276,-1.3124 2.75606,-1.3124c7.09548,0 49.28275,0 62.47059,0c2.48234,0 2.62481,0.6562 2.62481,0.6562c0,0 1.3124,1.08799 1.3124,3.01854c0,5.90323 0,36.45523 0,47.11542c0,2.30059 -0.6562,2.8873 -0.6562,2.8873c0,0 -0.76804,0.78744 -2.49357,0.78744c-6.49891,0 -48.3708,-0.13124 -62.99556,-0.13124c-3.27515,0 -3.28102,-0.78744 -3.28102,-0.78744z" fill="url(#color-1)" stroke="none" stroke-width="0" stroke-linecap="butt"/><g><path d="M247.33287,80.29498c0,-2.49909 2.02591,-4.525 4.525,-4.525c2.49909,0 4.525,2.02591 4.525,4.525c0,2.49909 -2.02591,4.525 -4.525,4.525c-2.49909,0 -4.525,-2.02591 -4.525,-4.525z" fill="url(#color-2)" stroke="none" stroke-width="0" stroke-linecap="butt"/><path d="M240.11504,64.39387c0,-2.67729 2.17037,-4.84766 4.84766,-4.84766c2.67729,0 4.84766,2.17037 4.84766,4.84766c0,2.67729 -2.17037,4.84766 -4.84766,4.84766c-2.67729,0 -4.84766,-2.17037 -4.84766,-4.84766z" fill="url(#color-3)" stroke="none" stroke-width="0" stroke-linecap="butt"/><path d="M244.9627,63.97737c0,-12.80065 10.37698,-23.17763 23.17763,-23.17763c12.80065,0 23.17763,10.37698 23.17763,23.17763c0,12.80065 -10.37698,23.17763 -23.17763,23.17763c-12.80065,0 -23.17763,-10.37698 -23.17763,-23.17763z" fill="url(#color-4)" stroke="none" stroke-width="0" stroke-linecap="butt"/><path d="M284.27136,64.86054c0,-2.67729 2.17037,-4.84766 4.84766,-4.84766c2.67729,0 4.84766,2.17037 4.84766,4.84766c0,2.67729 -2.17037,4.84766 -4.84766,4.84766c-2.67729,0 -4.84766,-2.17037 -4.84766,-4.84766z" fill="url(#color-5)" stroke="none" stroke-width="0" stroke-linecap="butt"/><text transform="translate(290.50037,65.80152) scale(0.06073,0.06073)" font-size="40" xml:space="preserve" fill="#2f2e2d" fill-rule="nonzero" stroke="none" stroke-width="1" stroke-linecap="butt" stroke-linejoin="miter" stroke-miterlimit="10" stroke-dasharray="" stroke-dashoffset="0" font-family="Sans Serif" font-weight="normal" text-anchor="start" style="mix-blend-mode: normal"><tspan x="0" dy="0">L</tspan></text><path d="M267.61879,40.5871c22.74924,0.6362 22.53846,20.23077 22.53846,20.23077" fill="none" stroke="url(#color-6)" stroke-width="3.5" stroke-linecap="round"/><path d="M243.41365,60.81787c0,0 1.45589,-19.59457 24.20513,-20.23077" fill="none" stroke="url(#color-7)" stroke-width="3.5" stroke-linecap="round"/><path d="M261.57289,73.31683c0.5,0 0.5,0.5 0.5,0.5l-0.02566,0.57478c-1.08044,2.7474 -6.3115,0.69332 -8.14197,-0.22566c-1.56721,-1.04309 -1.7755,0.36088 -3.57913,0.06109c-2.37635,-0.39499 -5.00183,-3.37986 -6.03379,-5.4366c0,0 -0.22361,-0.44721 0.22361,-0.67082c0.44721,-0.22361 0.67082,0.22361 0.67082,0.22361c0.91386,1.83464 3.22688,4.50194 5.29954,4.89673c1.72249,0.32809 2.10046,-1.1549 3.92087,0.06109c0.96543,0.48051 6.30716,2.58704 6.69136,0.77434l-0.02566,-0.25855c0,0 0,-0.5 0.5,-0.5z" fill="#151413" stroke="none" stroke-width="0.5" stroke-linecap="butt"/><path d="M269.90558,59.55188c0,-1.72222 1.39614,-3.11836 3.11836,-3.11836c1.72222,0 3.11836,1.39614 3.11836,3.11836c0,1.72222 -1.39614,3.11836 -3.11836,3.11836c-1.72222,0 -3.11836,-1.39614 -3.11836,-3.11836z" fill="url(#color-8)" stroke="none" stroke-width="0" stroke-linecap="butt"/><path d="M259.09525,59.12221c0,-1.72222 1.39613,-3.11836 3.11836,-3.11836c1.72222,0 3.11837,1.39613 3.11837,3.11836c0,1.72222 -1.39614,3.11837 -3.11837,3.11837c-1.72222,0 -3.11836,-1.39614 -3.11836,-3.11837z" fill="url(#color-9)" stroke="none" stroke-width="0" stroke-linecap="butt"/><path d="M272.49376,64.76704c0,0 0.0422,3.92344 -4.5129,4.05083" fill="none" stroke="url(#color-10)" stroke-width="1.5" stroke-linecap="round"/><path d="M267.98087,68.81787c-4.55511,-0.12739 -4.84662,-4.05083 -4.84662,-4.05083" fill="none" stroke="url(#color-11)" stroke-width="1.5" stroke-linecap="round"/><g stroke-width="0" stroke-linecap="butt"><path d="M259.66757,72.88823c0,-2.31138 0,-6.72964 0,-7.86666c0,-0.54516 0.49821,-1.1 0.95,-1.1c0.75945,0 3.17735,0 4.66667,0c0.7155,0 1.21666,0.31634 1.21666,0.83334c0,2.0104 0,7.05514 0,8.33333c0,0.57326 -0.47075,1.16667 -1.15,1.16667c-1.46091,0 -4.08627,0 -4.86667,0c-0.47796,0 -0.81667,-0.46726 -0.81667,-1.36667z" fill="url(#color-12)" stroke="url(#color-13)"/><path d="M261.95923,69.08823c0,-0.62132 0.50368,-1.125 1.125,-1.125c0.62132,0 1.125,0.50368 1.125,1.125c0,0.62132 -0.50368,1.125 -1.125,1.125c-0.62132,0 -1.125,-0.50368 -1.125,-1.125z" fill="url(#color-14)" stroke="none"/></g><path d="M263.33288,74.2549c0,-2.49909 2.02591,-4.525 4.525,-4.525c2.49909,0 4.525,2.02591 4.525,4.525c0,2.49909 -2.02591,4.525 -4.525,4.525c-2.49909,0 -4.525,-2.02591 -4.525,-4.525z" fill="url(#color-15)" stroke="none" stroke-width="0" stroke-linecap="butt"/></g></g></g></svg>