<svg version="1.1" xmlns="http://www.w3.org/2000/svg" xmlns:xlink="http://www.w3.org/1999/xlink" width="37.46856" height="37.13101" viewBox="0,0,37.46856,37.13101"><defs><linearGradient x1="-18.73712" y1="83.32385" x2="18.73144" y2="83.32385" gradientUnits="userSpaceOnUse" id="color-1"><stop offset="0" stop-color="#ffffff"/><stop offset="1" stop-color="#bebebe"/></linearGradient></defs><g transform="translate(18.73712,-64.75835)"><g data-paper-data="{&quot;isPaintingLayer&quot;:true}" fill-rule="nonzero" stroke="none" stroke-width="0" stroke-linecap="butt" stroke-linejoin="miter" stroke-miterlimit="10" stroke-dasharray="" stroke-dashoffset="0" style="mix-blend-mode: normal"><path d="M-17.77209,101.06219c0,0 -0.96503,-0.69405 -0.96503,-3.09546c0,-7.83417 0,-25.03601 0,-29.3491c0,-1.91921 0.82717,-2.75639 0.82717,-2.75639c0,0 0.83778,-1.10289 2.55043,-1.10289c4.12192,0 21.56326,0 29.778,0c2.62898,0 3.34793,1.24075 3.34793,1.24075c0,0 0.96503,1.59588 0.96503,4.13501c0,4.66403 0,20.41641 0,27.83262c0,2.39658 -0.82717,3.09546 -0.82717,3.09546c0,0 -0.74051,0.82717 -3.21007,0.82717c-8.01165,0 -25.51519,0 -29.778,0c-1.83304,0 -2.68829,-0.82717 -2.68829,-0.82717z" fill="url(#color-1)"/><path d="M-13.56209,95.85639v-1.44979h25.95128v1.44979z" fill="#010101"/><path d="M-13.20143,90.56286v-1.44979h25.95129v1.44979z" fill="#010101"/><path d="M-13.3464,84.90867v-1.44979h25.95129v1.44979z" fill="#010101"/><path d="M-12.98574,79.61515v-1.44979h25.95129v1.44979z" fill="#010101"/><path d="M-12.91503,73.16179v-1.44979h25.95128v1.44979z" fill="#010101"/></g></g></svg>